<?xml version="1.0" encoding="UTF-8" standalone="no"?>
<!-- Generator: Adobe Illustrator 17.0.0, SVG Export Plug-In . SVG Version: 6.00 Build 0)  -->

<svg
   xmlns:dc="http://purl.org/dc/elements/1.1/"
   xmlns:cc="http://creativecommons.org/ns#"
   xmlns:rdf="http://www.w3.org/1999/02/22-rdf-syntax-ns#"
   xmlns:svg="http://www.w3.org/2000/svg"
   xmlns="http://www.w3.org/2000/svg"
   xmlns:xlink="http://www.w3.org/1999/xlink"
   xmlns:sodipodi="http://sodipodi.sourceforge.net/DTD/sodipodi-0.dtd"
   xmlns:inkscape="http://www.inkscape.org/namespaces/inkscape"
   version="1.1"
   id="圖層_1"
   x="0px"
   y="0px"
   width="400"
   height="253"
   viewBox="0 0 399.99999 253.00001"
   enable-background="new 0 0 154.675 122.852"
   xml:space="preserve"
   inkscape:version="0.91 r13725"
   sodipodi:docname="CityU_SP_2015-20202.svg"><metadata
     id="metadata6355"><rdf:RDF><cc:Work
         rdf:about=""><dc:format>image/svg+xml</dc:format><dc:type
           rdf:resource="http://purl.org/dc/dcmitype/StillImage" /><dc:title></dc:title></cc:Work></rdf:RDF></metadata><defs
     id="defs6353" /><sodipodi:namedview
     pagecolor="#ffffff"
     bordercolor="#666666"
     borderopacity="1"
     objecttolerance="10"
     gridtolerance="10"
     guidetolerance="10"
     inkscape:pageopacity="0"
     inkscape:pageshadow="2"
     inkscape:window-width="1920"
     inkscape:window-height="1017"
     id="namedview6351"
     showgrid="false"
     fit-margin-top="0"
     fit-margin-left="0"
     fit-margin-right="0"
     fit-margin-bottom="0"
     inkscape:zoom="1.3257538"
     inkscape:cx="303.85655"
     inkscape:cy="177.71088"
     inkscape:window-x="-8"
     inkscape:window-y="-8"
     inkscape:window-maximized="1"
     inkscape:current-layer="圖層_1" /><g
     id="g7163"
     transform="matrix(1.3004901,0,0,1.3004901,-120.19609,-0.38128429)"><g
       transform="matrix(2.5860635,0,0,2.5860635,-7.6293954e-6,0.35641479)"
       id="g6101"><defs
         id="defs6103"><path
           inkscape:connector-curvature="0"
           d="m 151.769,0.686 c 0,0.002 -0.001,0.002 -0.001,0.002 l -13.994,73.764 -0.13,0.687 0.261,0.057 0.003,-0.004 0.008,0.008 c 0.155,0.033 0.359,-0.247 0.456,-0.62 l 16.235,-63.494 c 0.095,-0.373 0.091,-0.984 -0.013,-1.355 l -0.573,-2.068 0,-0.002 L 152.908,3.647 152.085,0.676 152.084,0.674 151.897,0 151.769,0.686 Z"
           id="SVGID_1_" /></defs><clipPath
         id="SVGID_2_"><use
           height="100%"
           width="100%"
           y="0"
           x="0"
           style="overflow:visible"
           id="use6107"
           overflow="visible"
           xlink:href="#SVGID_1_" /></clipPath><linearGradient
         gradientTransform="matrix(-14.9976,69.9889,69.9889,14.9976,-33691.707,71459.555)"
         y2="253.1772"
         x2="-1074.189"
         y1="253.1772"
         x1="-1075.189"
         gradientUnits="userSpaceOnUse"
         id="SVGID_3_"><stop
           id="stop6110"
           style="stop-color:#A91F5C"
           offset="0" /><stop
           id="stop6112"
           style="stop-color:#A91F5C"
           offset="0.4724" /><stop
           id="stop6114"
           style="stop-color:#812149"
           offset="0.7771" /><stop
           id="stop6116"
           style="stop-color:#691F3E"
           offset="1" /></linearGradient><polygon
         style="fill:url(#SVGID_3_)"
         id="polygon6118"
         points="138.393,-3.495 170.115,3.303 153.953,78.728 122.23,71.93 "
         clip-path="url(#SVGID_2_)" /></g><g
       transform="matrix(2.5860635,0,0,2.5860635,-7.6293954e-6,0.35641479)"
       id="g6120"><defs
         id="defs6122"><path
           inkscape:connector-curvature="0"
           d="m 137.644,75.139 -0.118,-0.026 c -0.006,-0.001 -0.01,-0.001 -0.015,-0.002 l 0.133,0.028 z"
           id="SVGID_4_" /></defs><clipPath
         id="SVGID_5_"><use
           height="100%"
           width="100%"
           y="0"
           x="0"
           style="overflow:visible"
           id="use6126"
           overflow="visible"
           xlink:href="#SVGID_4_" /></clipPath><linearGradient
         gradientTransform="matrix(-60.9864,63.801,63.801,60.9864,-81544.93,53188.219)"
         y2="253.17999"
         x2="-1074.189"
         y1="253.17999"
         x1="-1075.189"
         gradientUnits="userSpaceOnUse"
         id="SVGID_6_"><stop
           id="stop6129"
           style="stop-color:#F8DAE6"
           offset="0" /><stop
           id="stop6131"
           style="stop-color:#C65D7C"
           offset="0.2445" /><stop
           id="stop6133"
           style="stop-color:#B41B5B"
           offset="0.3497" /><stop
           id="stop6135"
           style="stop-color:#9D2055"
           offset="0.4891" /><stop
           id="stop6137"
           style="stop-color:#672346"
           offset="0.8324" /><stop
           id="stop6139"
           style="stop-color:#532340"
           offset="1" /></linearGradient><polygon
         style="fill:url(#SVGID_6_)"
         id="polygon6141"
         points="137.574,75.045 137.658,75.124 137.58,75.205 137.497,75.126 "
         clip-path="url(#SVGID_5_)" /></g><g
       transform="matrix(2.5860635,0,0,2.5860635,-7.6293954e-6,0.35641479)"
       id="g6143"><defs
         id="defs6145"><path
           inkscape:connector-curvature="0"
           d="m 72.246,42.332 0.206,-2.384 6.124,0 -1.653,18.874 c 0,0 -4.036,0.197 -3.681,-3.899 0.021,-0.187 0.035,-0.376 0.052,-0.567 0.173,-1.97 0.413,-4.709 0.559,-6.387 0.154,-1.719 0.257,-2.934 0.257,-2.934 l 0.149,-1.701 0.074,-0.691 -2.116,0 0.029,-0.311 z m 52.31,12.356 c 1.002,-0.924 1.644,-2.924 1.909,-5.946 l 0.751,-9.037 c 0,0 0.206,-2.413 2.835,-2.413 l 0.624,0 -0.241,2.413 -0.698,8.406 c -0.196,2.267 -0.46,3.87 -0.799,4.919 -0.349,1.062 -0.971,2.097 -1.837,3.073 -1.619,1.809 -3.969,2.729 -6.978,2.729 -3.077,0 -5.307,-0.812 -6.626,-2.408 -1.308,-1.591 -1.821,-4.098 -1.529,-7.458 l 0.768,-9.018 -2.32,0 c 0.036,-0.336 0.237,-2.656 0.237,-2.656 l 6.511,0 -0.217,2.656 -0.683,8.088 c -0.177,2.019 -0.212,3.507 -0.096,4.42 0.101,0.859 0.39,1.579 0.842,2.13 0.869,1.067 2.07,1.584 3.666,1.584 1.537,0 2.804,-0.481 3.881,-1.482 M 81.712,57.27 c -0.827,-1.018 -1.15,-2.604 -0.963,-4.717 l 0.85,-9.982 0.233,-2.623 0.269,-3.075 4.108,-0.993 -0.358,4.068 3.082,0 -0.19,2.619 -3.083,0 -0.93,10.406 c -0.097,1.117 0.017,1.955 0.348,2.494 0.309,0.494 0.799,0.736 1.504,0.736 2.317,0 2.232,2.219 2.232,2.219 0,0 -1.775,0.4 -2.955,0.4 -1.916,0 -3.316,-0.519 -4.147,-1.552 M 74.943,36.608 c 0.099,-1.106 1.068,-2.004 2.176,-2.004 1.104,0 1.927,0.898 1.826,2.004 -0.091,1.105 -1.07,2.002 -2.175,2.002 -1.107,0 -1.926,-0.897 -1.827,-2.002 M 151.358,0.159 c -0.045,0 -0.092,0.006 -0.142,0.019 l -93.7,24.398 c -0.372,0.099 -0.868,0.428 -1.101,0.737 L 35.859,52.51 c -0.234,0.307 -0.114,0.627 0.261,0.707 l 17.281,3.734 4.55,0.983 c -1.908,-0.715 -3.338,-1.752 -4.076,-2.621 -1.948,-2.311 -2.798,-5.492 -2.329,-8.883 1.19,-8.614 7.365,-12.473 13.075,-12.473 2.732,0 5.317,0.454 7.352,1.572 l 0.03,0.01 c -0.045,0.512 -0.399,3.141 -0.46,3.819 l -2.758,0 0.164,-1.48 c -1.031,-0.641 -4.701,-1.225 -7.727,0.013 -3.555,1.633 -5.085,5.864 -5.284,8.703 -0.137,2.023 0.145,4.672 1.563,6.59 1.424,1.928 5.411,3.4 10.106,1.824 2.087,-0.732 3.017,1.43 3.017,1.43 l -0.217,0.121 c -3.138,1.866 -6.133,2.375 -8.721,2.181 l 30.78,6.645 4.185,-7.828 -4.763,-14.914 -1.987,0 0.238,-2.695 5.079,0 0.796,2.43 3.354,10.216 5.582,-10.216 c 0,0 0.966,-2.43 4.059,-2.43 l 1.034,0 c 0,0 -13.055,23.242 -14.23,25.371 -0.145,0.263 -0.308,0.485 -0.476,0.686 l 42.189,9.108 c 0.015,0.003 0.03,0.004 0.047,0.006 l 0.071,0.02 0.002,-0.014 c 0.325,0.006 0.614,-0.222 0.675,-0.556 L 151.771,0.69 c 0.001,-0.01 -10e-4,-0.018 0,-0.028 L 151.895,0 151.358,0.159 Z"
           id="SVGID_7_" /></defs><clipPath
         id="SVGID_8_"><use
           height="100%"
           width="100%"
           y="0"
           x="0"
           style="overflow:visible"
           id="use6149"
           overflow="visible"
           xlink:href="#SVGID_7_" /></clipPath><linearGradient
         gradientTransform="matrix(-60.9864,63.801,63.801,60.9864,-81578.484,53156.145)"
         y2="253.05299"
         x2="-1074.189"
         y1="253.05299"
         x1="-1075.189"
         gradientUnits="userSpaceOnUse"
         id="SVGID_9_"><stop
           id="stop6152"
           style="stop-color:#F8DAE6"
           offset="0" /><stop
           id="stop6154"
           style="stop-color:#C65D7C"
           offset="0.2445" /><stop
           id="stop6156"
           style="stop-color:#B41B5B"
           offset="0.3497" /><stop
           id="stop6158"
           style="stop-color:#9D2055"
           offset="0.4891" /><stop
           id="stop6160"
           style="stop-color:#672346"
           offset="0.8324" /><stop
           id="stop6162"
           style="stop-color:#532340"
           offset="1" /></linearGradient><polygon
         style="fill:url(#SVGID_9_)"
         id="polygon6164"
         points="91.139,-58.076 189.426,35.876 96.381,133.215 -1.906,39.263 "
         clip-path="url(#SVGID_8_)" /></g></g></svg>