<?xml version="1.0" encoding="utf-8"?>
<!-- Generator: Adobe Illustrator 21.0.0, SVG Export Plug-In . SVG Version: 6.00 Build 0)  -->
<svg version="1.1" id="Layer_1" xmlns="http://www.w3.org/2000/svg" xmlns:xlink="http://www.w3.org/1999/xlink" x="0px" y="0px"
	 viewBox="0 0 47.5 47.5" style="enable-background:new 0 0 47.5 47.5;" xml:space="preserve" height="300" width="300">
<style type="text/css">
	.st0{fill:#006425;}
	.st1{fill:#FFFFFF;}
	.st2{fill:#9A6325;}
</style>
<title>2</title>
<path class="st0" d="M47.2,23.7c0,13-10.5,23.5-23.5,23.5c-13,0-23.5-10.5-23.5-23.5c0-13,10.5-23.5,23.5-23.5
	C36.7,0.3,47.2,10.8,47.2,23.7"/>
<path class="st1" d="M45.3,23.7c0,11.9-9.7,21.6-21.6,21.6c-11.9,0-21.6-9.7-21.6-21.6c0-11.9,9.7-21.6,21.6-21.6
	C35.7,2.2,45.3,11.8,45.3,23.7"/>
<path class="st2" d="M44.5,23.7c0,11.4-9.3,20.7-20.7,20.7C12.3,44.5,3,35.2,3,23.7C3,12.3,12.3,3,23.8,3
	C35.2,3,44.5,12.3,44.5,23.7"/>
<path class="st1" d="M25.1,21.3l0.7,1.4v2.1c0,0.1,0.1,0.2,0.2,0.2c0.1,0,0.2-0.1,0.2-0.2v-2.1l0.7-1.4L26,19.4L25.1,21.3z M26,22.2
	l-0.5-0.9l0.5-0.9l0.5,0.9L26,22.2z"/>
<path class="st1" d="M31.8,10.8c-4,0-6.8,1.6-7.8,2.2v1.4h-0.4V13c-1-0.6-3.8-2.2-7.8-2.2c-2.5,0-5.4,0.6-8.7,2.4v20.1
	c1.6-1.3,4.3-2.9,7.9-3.1c0.2,0,0.3,0,0.5,0c3,0,6.6,1.7,8.1,2.8v-9.1H24V33c1.5-1.2,5.1-2.8,8.1-2.8l0.5,0c3.6,0.2,6.3,1.9,7.9,3.1
	V13.2C37.2,11.4,34.2,10.8,31.8,10.8 M23.6,17.1L23.6,17.1h-0.7c-0.1,0-0.2,0.1-0.2,0.2c0,0.1,0.1,0.2,0.2,0.2h0.7h0v3.5h0H23
	c-0.1,0-0.2,0.1-0.2,0.2c0,0.1,0.1,0.2,0.2,0.2h0.5h0v2h0H23c0,0,0.2,0.5-1.4,4.9h0c0,0-1.7,0-3.1,0c2.3-4.7,1.5-10.4,1.5-10.4h2.3
	L21.9,15h1.7h0V17.1z M26,28.4c-1.6-4.4-1.4-4.9-1.4-4.9H24v-2h0h0.5c0.1,0,0.2-0.1,0.2-0.2c0-0.1-0.1-0.2-0.2-0.2H24h0v-3.5h0.7
	c0.1,0,0.2-0.1,0.2-0.2c0-0.1-0.1-0.2-0.2-0.2H24V15h1.6l-0.4,2.9h2.3c0,0-0.9,5.7,1.5,10.4C27.6,28.4,26,28.4,26,28.4"/>
<path class="st1" d="M21.6,19.4c-0.4,0-0.8,0.4-0.8,0.8v3.2c0,0.2,0.1,0.4,0.2,0.6c0,0,0,0,0,0l-0.2,0.8c0,0.1,0,0.2,0.2,0.3
	c0.1,0,0.2,0,0.3-0.2l0.2-0.7c0,0,0.1,0,0.1,0c0,0,0.1,0,0.1,0l0.2,0.7c0,0.1,0.2,0.2,0.3,0.2c0.1,0,0.2-0.2,0.2-0.3l-0.2-0.8
	c0,0,0,0,0,0c0.2-0.1,0.2-0.3,0.2-0.6v-3.2C22.3,19.8,22,19.4,21.6,19.4 M21.9,23.4c0,0.1,0,0.2-0.1,0.2c-0.1,0.1-0.2,0.1-0.3,0.1
	c-0.1,0-0.2,0-0.2-0.1c-0.1-0.1-0.1-0.2-0.1-0.2v-1.8h0.7V23.4z M21.9,21.1h-0.7v-0.9c0-0.2,0.2-0.3,0.4-0.3c0.2,0,0.3,0.2,0.3,0.3
	V21.1z"/>
<path class="st1" d="M8.7,33.7c0,0,3.2-2.2,6.6-2.2c4.1,0,7.9,2.2,7.9,2.2s-4.1-1.6-7.9-1.6C11.5,32.1,8.7,33.7,8.7,33.7"/>
<path class="st1" d="M38.9,33.7c0,0-3.2-2.2-6.6-2.2c-4.1,0-7.9,2.2-7.9,2.2s4.1-1.6,7.9-1.6C36.1,32.1,38.9,33.7,38.9,33.7"/>
<path class="st0" d="M34.9,17.8c0,0,0-0.1,0-0.1l0,0l0,0c-0.1,0-0.1,0-0.2,0.1c-0.2,0.1-0.5,0.2-0.7,0.2c-0.1,0-0.2,0.1-0.2,0.2
	c0,0.2,0.2,0.4,0.5,0.4C34.5,18.6,34.9,18.1,34.9,17.8"/>
<path class="st0" d="M38.6,17.1c-0.1,0-0.1,0-0.2,0c-0.1,0-0.2,0-0.3,0c-0.1,0-0.4,0-0.6,0c-0.1,0-0.2,0-0.3,0c0,0-0.1,0-0.1,0
	c0,0,0,0,0,0c0,0,0-0.1,0-0.1c0.1,0,0.2-0.1,0.2-0.2c0.1-0.3,0.1-0.6,0.1-0.8c0-0.2,0.1-0.4,0.1-0.6c0-0.3-0.4-0.3-0.8-0.4
	c-0.4,0-0.8,0-0.9,0c0,0,0,0,0,0c0-0.1,0-0.1,0-0.1c0,0,0,0,0-0.1c0,0,0,0,0.1,0c0.6,0,1.3,0,1.9,0c0.1,0,0.3,0,0.3-0.2
	c0-0.2-0.1-0.2-0.3-0.2c-0.1,0-0.3,0-0.3,0c-0.2,0-0.4,0-0.6,0c0.1,0,0.2-0.1,0.3-0.1c0.1-0.1,0.2-0.2,0.2-0.3
	c0-0.2-0.2-0.3-0.4-0.3c-0.3,0-0.3,0.3-0.3,0.4v0.1c0,0,0,0.2,0.1,0.2c-0.3,0-0.7,0-1,0c0,0,0,0,0,0c0-0.1,0-0.1,0-0.2
	c0-0.2-0.1-0.4-0.4-0.4c-0.2,0-0.3,0.2-0.3,0.3c0,0.1,0,0.2,0,0.2c0,0.1,0,0.1-0.1,0.1c-0.4,0-0.9,0-1.3,0c-0.1,0-0.2,0-0.3,0
	c-0.1,0-0.3,0-0.4,0.1c-0.1,0.1-0.3,0.1-0.3,0.3l0,0l0,0c0.1,0.1,0.3,0.1,0.4,0.1c0.2,0,0.3,0,0.5,0c0.5,0,1-0.1,1.4-0.1
	c0,0,0,0,0.1,0.1c0,0,0,0.1,0,0.1c0,0,0,0,0,0c0,0,0,0,0,0c-0.4,0-0.7,0-1.1,0c-0.2,0-0.4,0-0.5,0.1c-0.1,0.1-0.1,0.2-0.1,0.4
	c0,0.3,0,1.1,0.1,1.3c0,0.1,0.1,0.3,0.3,0.3c0.1,0,0.2,0,0.2-0.1c0-0.1,0-0.1,0-0.2c0,0,0-0.1,0-0.1c0,0,0-0.1,0-0.1
	c0.1,0,0.9-0.1,1-0.1c0,0,0,0,0,0c0.1,0,0.1,0,0.1,0.2c0,0.1,0.1,0.3,0.3,0.3c0.2,0,0.3-0.1,0.3-0.2c0-0.1,0-0.2,0-0.2c0,0,0,0,0,0
	c0.1,0,0.4,0,0.6,0c0.1,0,0.1,0,0.2,0c0,0,0,0,0,0c0,0,0.1,0,0.1,0c0,0,0,0,0,0c0,0,0,0.1,0,0.1c-0.1,0-0.2,0.1-0.2,0.2
	c0,0.1,0,0.1,0,0.1l0,0c-0.3,0-2.2,0.1-2.7,0.1c-0.2,0-0.5,0-0.7,0c-0.1,0-0.3,0-0.5,0.1c-0.2,0.1-0.4,0.1-0.4,0.3
	c0,0.2,0.2,0.2,0.3,0.2c0.2,0,0.4-0.1,0.6-0.1c0.4-0.1,0.8-0.1,1.3-0.1c0.7,0,1.3-0.1,2-0.1c0.2,0,0.2,0,0.2,0.2c0,0,0,0.1,0,0.1
	c0,0.3,0,0.6-0.1,0.8c-0.1,0.1-0.2,0.2-0.4,0.3C35.8,19,35.5,19,35.3,19c-0.1,0-0.3,0-0.5,0c-0.1,0-0.2,0-0.2,0.1
	c0,0.1,0.1,0.1,0.1,0.1c0.3,0.2,0.7,0.3,1,0.3c0.7,0,1.4-0.2,1.4-0.9c0-0.2,0-0.5,0-0.7c0-0.1,0-0.2,0-0.3c0.3,0,0.7,0.2,1,0.2
	c0.2,0,0.4,0,0.5-0.2l0,0c0-0.1,0.2-0.2,0.2-0.3C38.8,17.2,38.7,17.1,38.6,17.1 M35.7,16.2V16c0-0.1,0,0,0.1-0.1l0.5,0
	c0.1,0,0.2,0,0.3,0c0.1,0,0.1,0,0.1,0.1c0,0.2,0,0.2-0.2,0.2C36.3,16.3,36.1,16.3,35.7,16.2C35.8,16.3,35.7,16.3,35.7,16.2
	L35.7,16.2L35.7,16.2C35.7,16.2,35.7,16.2,35.7,16.2 M35.7,15.5c0,0,0-0.1,0-0.1c0-0.1,0-0.1,0.1-0.1c0.1,0,0.4,0,0.6,0
	c0.1,0,0.2,0,0.3,0c0,0,0.1,0,0.1,0c0,0,0,0,0,0c0,0,0,0,0,0v0c0,0.1,0,0.1,0,0.1c0,0,0,0-0.1,0c-0.3,0-0.6,0-0.9,0
	C35.8,15.6,35.7,15.6,35.7,15.5C35.7,15.6,35.7,15.6,35.7,15.5 M34,16C34,16,34,16,34,16c0.1-0.1,0.9-0.1,1-0.1c0.1,0,0.1,0,0.1,0
	c0,0,0,0,0,0c0,0,0,0.1,0,0.1v0c0,0,0,0.1,0,0.1c0,0,0,0-0.1,0c-0.3,0-0.6,0-1,0c-0.1,0-0.1,0-0.1,0c0,0,0,0,0,0
	C34,16.2,34,16.1,34,16C34,16.1,34,16.1,34,16 M34.9,15.6c-0.1,0-0.2,0-0.4,0h-0.5h0c-0.1,0-0.1,0-0.1,0c0,0,0,0,0-0.1v-0.1
	c0,0,0,0,0-0.1c0.1,0,0.6,0,0.8,0c0.1,0,0.1,0,0.2,0c0.1,0,0.2,0,0.2,0.1C35.1,15.6,35.1,15.6,34.9,15.6"/>
<path class="st0" d="M31.3,15.8C31.3,15.8,31.3,15.8,31.3,15.8c0,1.1-0.1,2.1-0.1,3.2c0,0.1,0,0.5,0.3,0.5c0.4,0,0.4-0.6,0.4-0.8
	c0-0.5,0-1,0-1.5c0-0.1,0-0.4,0-0.6c0-0.3,0-0.6,0-0.7c0.1,0,0.3,0,0.5,0c0.2,0,0.5-0.1,0.5-0.3c0-0.2-0.3-0.2-0.5-0.2
	c-0.1,0-0.2,0-0.3,0c-0.1,0-0.2,0-0.2,0c0,0,0,0,0-0.1c0-0.4,0.1-0.7,0.1-1.1c0-0.2-0.2-0.4-0.4-0.4c-0.3,0-0.3,0.5-0.3,0.6
	c0,0.3,0,0.7,0,1c0,0,0,0,0,0c-0.1,0-0.2,0-0.3,0c-0.1,0-0.2-0.1-0.4-0.1c-0.1,0-0.3,0.1-0.4,0.1c-0.1,0.1-0.3,0.1-0.3,0.3
	c0,0.2,0.2,0.2,0.4,0.2c0.3,0,0.6-0.1,0.9-0.1C31.2,15.8,31.3,15.8,31.3,15.8"/>
<path class="st0" d="M37.4,24.5c0,0-0.1,0-0.2,0c-0.1,0-0.3,0-0.5,0c0,0,0,0,0,0v0l0,0c0,0,0,0,0-0.1l0.4-1c0-0.1,0.2-0.4,0.2-0.5
	c0-0.1-0.1-0.2-0.2-0.2c-0.3-0.1-0.6-0.1-0.9-0.1c0,0,0,0,0,0c-0.1,0-0.4,0.1-0.4,0.3c0,0.1,0,0.1,0.1,0.2C36,23,36.1,23,36.2,23
	c0.1,0,0.2,0,0.3,0c0.1,0,0.1,0,0.2,0.1c0,0,0,0,0,0c0,0,0,0-0.2,0c-0.1,0-0.3,0-0.5,0c-0.1,0-0.3,0-0.3,0.2c0,0,0,0,0,0
	c0,0.2,0.2,0.2,0.3,0.2c0.1,0,0.3,0,0.4,0c0.1,0,0.1,0,0.1,0c0,0,0,0,0,0c0,0,0,0.1,0,0.1c-0.1,0-0.3,0-0.5,0.1
	c-0.2,0-0.4,0-0.5,0.2c0,0,0,0,0,0c0,0.1,0,0.1,0.1,0.2c0.1,0.1,0.2,0.1,0.2,0.1c0.2,0,0.4-0.1,0.5-0.1c0,0,0,0,0,0c0,0,0,0,0,0
	c0,0,0,0,0,0.1c0,0.1,0,0.1,0,0.2c0,0.1,0,0.1,0,0.1c0,0-0.2,0.1-0.4,0.1c-0.1,0-0.2,0-0.3,0c0,0-0.1,0-0.1,0c0,0,0,0,0,0v0
	c-0.1-0.1-0.1-0.2-0.2-0.3c-0.1-0.1-0.2-0.2-0.3-0.3c0.1-0.1,0.5-0.3,0.6-0.3c0.1,0,0.1,0,0.2-0.1c0,0,0,0,0,0
	c0-0.2-0.2-0.2-0.4-0.3C35.2,23,35.1,23,35,23c0,0,0,0-0.1,0c0.1-0.1,0.3-0.1,0.4-0.3c0,0,0-0.1,0-0.2c0-0.1-0.1-0.1-0.2-0.1
	c-0.2,0-0.2,0.1-0.3,0.2c0,0.1-0.1,0.1-0.1,0.1c0,0,0,0,0,0c0,0,0,0,0,0c0,0,0,0,0,0c-0.1-0.1-0.1-0.2-0.3-0.3c0,0-0.1,0-0.2,0
	c-0.2,0-0.4,0-0.5,0.2l0,0l0,0c0.1,0.1,0.2,0.2,0.4,0.2c0.1,0,0.1,0.1,0.2,0.1c0,0,0,0,0,0c-0.1,0-0.2,0.1-0.3,0.2
	c-0.2,0.1-0.3,0.2-0.4,0.3c0,0.1,0.1,0.1,0.2,0.1c0,0,0,0,0,0c0,0.1,0.1,0.2,0.2,0.2c0.1,0,0.2,0.1,0.2,0.1c0,0-0.1,0.1-0.3,0.2
	c-0.2,0.1-0.3,0.2-0.4,0.3c0,0-0.1,0.1-0.1,0.1c-0.1,0-0.4,0-0.6,0c-0.1,0-0.1,0-0.1,0c0,0,0,0,0,0h0c0,0,0-0.2,0-0.3c0,0,0,0,0,0
	c0-0.1,0-0.1,0-0.1c0,0,0.1,0,0.2,0c0,0,0.1,0,0.1,0c0.2,0,0.4,0,0.5-0.2c0,0,0-0.1,0-0.1c0,0,0-0.1,0-0.1c-0.1-0.1-0.1,0-0.2-0.1
	c-0.2,0-0.6,0.1-0.7,0.1c0,0-0.1,0-0.1,0c0,0,0,0,0,0c0,0,0-0.1-0.1-0.2c0,0,0,0,0.1,0c0.1,0,0.2,0,0.3,0c0.2,0,0.4,0,0.5-0.2
	c0,0,0.1-0.1,0.1-0.2c0,0,0,0,0-0.1C33.3,23,33.2,23,33.1,23c-0.2,0-0.5,0-0.6,0c0,0-0.1,0-0.1,0c0,0,0,0,0,0c0,0,0,0,0,0
	c0,0,0,0,0.1-0.1c0.2-0.1,0.6-0.1,0.7-0.4c0,0,0,0,0,0c0-0.1,0-0.1-0.1-0.2c-0.1,0-0.1,0-0.1,0c-0.3,0-0.9,0.2-1.1,0.2
	c-0.1,0-0.1,0.1-0.2,0.2c0,0,0,0,0,0.1c0,0.3,0.4,1.5,0.4,1.7c0,0-0.2,0.1-0.5,0c-0.1,0-0.3,0-0.4,0c-0.1,0-0.2,0-0.2,0
	c-0.1,0-0.1,0.1-0.2,0.1c-0.1,0.2-0.3,0.9-0.3,1.2c0,0,0,0,0,0c0,0.1,0.1,0.1,0.1,0.2c0.1,0,0.1,0.1,0.2,0.1h0
	c0.3,0,0.4-0.3,0.5-0.5c0.1-0.2,0.1-0.5,0.3-0.6c0,0,0.5-0.1,1.1-0.1c0.6,0,1.4-0.1,2.1-0.1c1.2,0,2.3,0.1,2.5,0.2
	c0.1,0,0.1,0.1,0.2,0.2c0.1,0.1,0.1,0.2,0.1,0.3c0,0.1,0.1,0.4,0.4,0.4h0c0.1,0,0.2,0,0.3-0.1c0-0.1,0-0.1,0-0.2
	c0-0.2-0.1-0.3-0.1-0.5C38,24.6,37.8,24.5,37.4,24.5 M34.3,24.3c0.1,0,0.1-0.1,0.2-0.1c0,0,0,0,0.1,0c0,0,0,0,0,0c0,0,0,0,0,0
	c0.1,0,0.2,0.1,0.3,0.2c0,0,0.1,0.1,0.1,0.1c0,0,0,0,0,0c0,0-0.1,0-0.3,0c-0.2,0-0.5,0-0.7,0C34.1,24.4,34.2,24.4,34.3,24.3
	 M34.8,23.6c-0.1,0-0.1,0.1-0.2,0.1c0,0,0,0-0.1,0c0,0,0,0,0,0c0,0-0.1-0.2-0.3-0.3c0,0,0,0,0,0h0c0.2-0.1,0.3-0.2,0.4-0.2
	c0.1,0,0.1,0,0.2,0h0c0.1,0,0.2,0.1,0.2,0.1C34.9,23.4,34.9,23.5,34.8,23.6"/>
<path class="st0" d="M37.2,25.9C37.2,25.9,37.1,25.9,37.2,25.9c-0.2,0-1.2,0.1-1.7,0.1c-0.1,0-0.1,0-0.2,0c0,0,0,0-0.1,0h0
	c0,0,0,0,0,0c0,0,0.2-0.1,0.3-0.1c0.1,0,0.2-0.1,0.3-0.2c0.1-0.1,0.2-0.2,0.3-0.3v0c0-0.1-0.1-0.2-0.2-0.2c-0.1-0.1-0.3-0.1-0.4-0.1
	c-0.1,0-0.2,0-0.3,0c-0.2,0-0.4,0-0.6,0c-0.2,0-0.4,0-0.6,0c-0.2,0-0.3,0-0.5,0c-0.2,0-0.3,0-0.5,0.1c0,0-0.2,0.1-0.2,0.2
	c0,0-0.1,0.1-0.1,0.1c0,0.1,0.1,0.2,0.3,0.2c0,0,0,0,0,0c0.1,0,0.2,0,0.3-0.1c0.5-0.1,1.2-0.2,1.7-0.2c0,0,0,0,0.1,0
	c0.1,0,0.1,0,0.2,0c0,0,0,0,0,0c0,0-0.1,0.1-0.2,0.2c-0.1,0-0.1,0.1-0.2,0.1c0,0,0,0-0.1,0c0,0,0,0,0,0c-0.1,0-0.2-0.2-0.6-0.2
	c-0.2,0-0.3,0.1-0.3,0.2c0,0.1,0.1,0.2,0.1,0.2c0.1,0,0.1,0.1,0.2,0.1c-0.2,0-1.3,0.1-1.6,0.1c0,0,0,0-0.1,0c-0.1,0-0.2,0-0.3,0
	c-0.2,0-0.4,0-0.5,0.1c-0.1,0-0.2,0.1-0.3,0.2c0,0,0,0,0,0.1c0,0.1,0,0.1,0.1,0.2c0.1,0.1,0.1,0.1,0.2,0.1c0.1,0,0.1,0,0.2,0
	c0.3-0.1,1.7-0.2,2.2-0.2c0.1,0,0.1,0,0.2,0c0,0,0,0,0,0l0,0c0,0,0,0,0,0.1c0,0,0,0,0,0c0,0.1-0.1,0.3-0.2,0.4
	c-0.3,0.5-0.9,0.6-1.5,0.6c-0.2,0-0.4,0-0.5,0c0,0,0,0-0.1,0c-0.1,0-0.2,0-0.2,0.1c0,0,0,0,0,0c0,0.3,0.4,0.4,0.6,0.5
	c0.1,0,0.2,0,0.3,0c0.4,0,0.9-0.2,1.1-0.2c0.3-0.1,0.6-0.3,0.7-0.5c0.2-0.3,0.2-0.5,0.3-0.8c0-0.1,0-0.2,0-0.2l0,0l0,0l0,0
	c0,0,0,0,0,0c0,0,0,0,0,0c0,0,0.1,0,0.2,0c0.3,0,0.7,0,0.8,0c0.2,0,0.4,0.1,0.6,0.1c0.2,0,0.5-0.1,0.6-0.3c0,0,0.1-0.1,0.1-0.2
	c0,0,0-0.1-0.1-0.1C37.2,25.9,37.2,25.9,37.2,25.9"/>
<path class="st0" d="M11.9,14.3C11.9,14.3,11.9,14.3,11.9,14.3c0,0.1,0,0.2,0,0.2c0.1,0.1,0.1,0.5,0.4,0.5c0.2,0,0.3-0.3,0.3-0.4
	c0,0,0-0.1,0-0.1c0-0.1,0-0.2-0.1-0.3c-0.1-0.1-0.2-0.1-0.2-0.1C12.1,14.2,12,14.2,11.9,14.3"/>
<path class="st0" d="M10.2,14.8c0.1,0,0.1,0,0.2,0c0.2,0,0.4-0.1,0.5-0.1c0.2-0.1,0.5-0.2,0.7-0.3c0.2-0.2,0.5-0.4,0.8-0.4
	c0,0,0,0,0,0c0.5,0,0.9,0.3,1.3,0.4c0,0,0.1,0,0.1,0c0.1,0,0.2,0,0.2-0.2c0-0.1,0-0.1-0.1-0.2c-0.2-0.2-1-0.4-1.1-0.5
	c0,0-0.1,0-0.1,0c0,0,0,0-0.1,0c0,0,0,0,0,0l0,0c0-0.1-0.1-0.2-0.2-0.2c0,0,0,0,0,0c-0.1,0-0.2,0.1-0.2,0.1
	c-0.5,0.5-0.9,0.6-1.6,0.7c-0.2,0-0.4,0.1-0.4,0.3C10,14.7,10.1,14.7,10.2,14.8 M13.6,14.3L13.6,14.3L13.6,14.3L13.6,14.3z"/>
<path class="st0" d="M10.8,17.8c-0.1,0.1-0.1,0.4-0.1,0.5c0,0.1,0,0.1,0,0.2c0,0,0,0.1,0,0.1c0,0.2,0.1,0.3,0.2,0.3
	c0.1,0,0.2-0.1,0.3-0.2c0.1-0.1,0.1-0.2,0.2-0.3c0-0.1,0.1-0.2,0.1-0.2c0-0.1,0-0.1,0-0.2c0-0.2-0.2-0.3-0.4-0.3
	C11,17.7,10.9,17.7,10.8,17.8"/>
<path class="st0" d="M14.3,14.7c0.1,0,0.3,0,0.4-0.1c0.2-0.1,0.4-0.2,0.6-0.4c0.3-0.2,0.4-0.4,0.5-0.4c0.1,0,0.2,0,0.3,0.1
	c0.2,0.1,0.4,0.2,0.5,0.3c0.1,0.1,0.3,0.3,0.5,0.4h0c0.1,0,0.1,0,0.2,0c0.3,0,0.6-0.3,0.6-0.4c0,0,0,0,0,0c-0.1-0.1-0.1-0.1-0.2-0.1
	c-0.3-0.1-1-0.3-1.1-0.3c0,0-0.1,0-0.3-0.1c-0.1,0-0.1,0-0.2-0.1c0,0,0,0-0.1,0h0c0,0,0-0.1-0.1-0.2c-0.1-0.1-0.1-0.1-0.2-0.1
	c-0.1,0-0.1,0-0.2,0.1c-0.2,0.2-0.2,0.3-0.4,0.4C15,13.9,14.9,14,14.8,14c-0.1,0-0.3,0.1-0.4,0.1c-0.2,0.1-0.3,0.1-0.4,0.2
	c0,0,0,0.1,0,0.1C14,14.7,14.2,14.7,14.3,14.7"/>
<path class="st0" d="M12.9,17.7c-0.1,0-0.1-0.1-0.2-0.1c0,0,0,0-0.1,0c-0.1,0-0.2,0-0.2,0.1c-0.1,0.1-0.1,0.1-0.1,0.2
	c0,0.3,0.1,0.6,0.2,0.7c0,0.1,0.1,0.1,0.2,0.1c0.2,0,0.2-0.2,0.3-0.5c0.1-0.2,0.1-0.4,0.1-0.5c0,0,0,0,0,0
	C13,17.8,13,17.8,12.9,17.7"/>
<path class="st0" d="M15.5,18.6c0.1,0,0.2-0.1,0.2-0.3v-0.4c0-0.2-0.2-0.3-0.4-0.3c-0.2,0-0.4,0.1-0.4,0.3c0,0.1,0,0.1,0.1,0.2
	C15,18.1,15.3,18.6,15.5,18.6"/>
<path class="st0" d="M14.3,18.8c0.1-0.1,0.1-0.1,0.1-0.3c0-0.3-0.1-0.7-0.2-0.8c-0.1-0.1-0.1-0.1-0.2-0.1c0,0,0,0,0,0
	c-0.1,0-0.2,0-0.3,0.1c-0.1,0.1-0.1,0.1-0.1,0.2c0,0.2,0.2,0.4,0.3,0.5l0,0l0,0C14,18.5,14.1,18.7,14.3,18.8
	C14.3,18.8,14.3,18.8,14.3,18.8"/>
<path class="st0" d="M15.5,17.4c0.3,0,0.6,0,0.8,0.1c0.2,0.1,0.4,0.2,0.4,0.4c0,0.2-0.2,0.5-0.4,0.8c-0.2,0.3-0.4,0.4-0.5,0.6
	c0,0,0,0,0,0l0,0l0,0c0,0,0.1,0,0.1,0c0.7,0,1.1-0.8,1.3-1.2c0.1-0.1,0.3-0.2,0.3-0.4c0-0.3-0.4-0.5-0.9-0.6
	C16.2,17,15.7,17,15.5,17c-0.1,0-0.2,0-0.2,0c-0.1,0-0.2,0-0.3,0c0,0,0,0,0-0.1c0,0,0,0,0-0.1c0,0,0-0.1,0-0.1c0,0,0,0,0-0.1
	c0.1,0,0.1,0,0.2,0c0.4,0,0.8,0,1.2,0c0.1,0,0.3,0,0.4-0.2c0-0.2-0.2-0.2-0.3-0.2h0h-1.2c-0.2,0-0.1,0-0.2-0.1c0,0,0-0.1,0-0.1
	c0,0,0-0.1,0-0.1c0.1,0,0.1,0,0.2,0c0.3,0,0.6,0,1,0c0,0,0,0,0.1,0c0.1,0,0.1,0,0.2,0c0,0,0.1,0,0.1,0c0,0,0.1,0,0.1-0.1
	c0-0.3-0.5-0.3-0.6-0.3c-0.3,0-0.5,0-0.8,0c0,0,0,0-0.1,0c0,0-0.1,0-0.1,0c0-0.1,0-0.1,0-0.2c0-0.1,0-0.1,0.2-0.1c0.3,0,0.5,0,0.8,0
	c0.1,0,0.4,0,0.5-0.2c0-0.1-0.1-0.1-0.1-0.1c-0.1,0-0.3,0-0.4-0.1c0,0,0.1-0.1,0.1-0.1c0.1-0.1,0.2-0.2,0.2-0.4c0-0.1,0-0.1-0.1-0.2
	c-0.1,0-0.1-0.1-0.2-0.1c-0.1,0-0.1,0-0.2,0c-0.1,0-0.1,0-0.2,0.1c0,0,0,0.1,0,0.1c0,0.2,0.1,0.4,0.2,0.5c-0.8,0-1.5,0-2.3,0
	c-0.2,0-0.4,0-0.6,0.1c-0.2,0-0.2,0.1-0.3,0.1c-0.1,0-0.3-0.1-0.5-0.2c-0.2,0-0.2,0.1-0.2,0.2c0,0.6,0.1,1.1,0.1,1.6
	c0,0.2-0.1,0.3-0.1,0.4c-0.1,0.1-0.2,0.1-0.2,0.3c0,0.2,0.1,0.3,0.3,0.3c0.3,0,0.9-0.3,1.3-0.3c0.6-0.1,1.2-0.1,1.8-0.1
	C15.1,17.4,15.3,17.4,15.5,17.4 M12.6,15.3c0.1,0,0.3,0.1,0.4,0.1c0.3,0,0.6-0.1,0.9-0.1c0.1,0,0.2,0,0.2,0c0.2,0,0.1,0,0.1,0.2
	c0,0.1,0,0.1,0,0.1c0,0-0.1,0-0.2,0c-0.3,0-0.6,0-0.9,0c-0.2,0-0.6,0-0.7,0.3c0,0.2,0.2,0.1,0.3,0.2h0c0.4,0,0.8-0.1,1.2-0.1
	c0,0,0.1,0,0.1,0c0,0.1,0,0.1,0,0.2c0,0,0,0.1,0,0.1c-0.1,0-0.1,0-0.2,0c-0.3,0-0.5,0-0.8,0c-0.1,0-0.3,0-0.5,0
	c-0.2,0-0.4,0.1-0.4,0.3c0,0.2,0.2,0.2,0.3,0.2h0c0.5,0,0.9-0.1,1.3-0.1c0,0,0.1,0,0.1,0c0,0,0,0.1,0,0.1c0,0,0,0.1,0,0.1
	c0,0,0,0.1,0,0.1c-0.2,0-1.4,0.1-1.6,0.1c-0.4,0-0.3-0.1-0.3-0.3c0-0.1,0-0.1,0-0.2c0-0.1,0-0.4,0.1-0.7c0-0.1,0-0.3,0.1-0.4
	C12.6,15.4,12.6,15.3,12.6,15.3"/>
<path class="st0" d="M17.1,22.5c0-0.1-0.1-0.1-0.2-0.1c0,0,0,0,0,0c-0.3,0-0.6,0-0.9,0c-0.1,0-0.1,0-0.2,0c-0.2,0-0.4,0-0.6,0
	c-0.1,0-0.1,0-0.2,0c-0.1,0-0.3,0-0.4,0.1c-0.2,0.1-0.3,0.1-0.3,0.3c0,0.1,0,0.1,0.1,0.2c0.1,0.1,0.2,0.1,0.4,0.1
	c0.3,0,0.8-0.1,1-0.1c0,0,0,0,0.1,0c0.2,0,0.4,0,0.7,0c0.2,0,0.3,0,0.5-0.1v0C16.8,22.8,17,22.7,17.1,22.5"/>
<path class="st0" d="M12.8,22.6c0,0-0.1,0-0.1,0c-0.3,0-0.5-0.1-0.7-0.1c-0.2,0-0.5-0.1-0.7-0.1c-0.1,0-0.3,0-0.4,0.1
	c-0.2,0.1-0.4,0.2-0.4,0.4c0,0.1,0.1,0.2,0.3,0.2c0,0,0.1,0,0.1,0c0.2,0,0.5,0,0.7,0l0,0l0,0c0.1,0,0.3,0,0.6,0c0.3,0,0.5,0,0.6,0
	c0.1,0,0.1-0.1,0.1-0.1C12.9,22.6,12.8,22.6,12.8,22.6"/>
<path class="st0" d="M18,23.9L18,23.9c-0.1-0.1-0.3-0.1-0.6-0.1c-0.8,0-2.1,0.1-2.5,0.1c0,0,0,0,0,0c-0.3,0-0.6-0.1-0.9-0.1
	c-0.3,0-0.6,0.1-0.8,0.3c0,0.1-0.1,0.1-0.1,0.2c0,0.1,0.1,0.2,0.3,0.2c0.1,0,0.3-0.1,0.4-0.1c0.1,0,0.9-0.1,1.3-0.1
	c0.1,0,0.3,0,0.3,0c0,0,0,0.1,0,0.1c0.1,0.3,0.1,0.7,0.1,1c0,0.4,0,0.8,0,1.1c0,0.2,0,0.3,0,0.5c0,0.2,0,0.4,0,0.6
	c0,0.1,0.1,0.3,0.3,0.3h0c0.1,0,0.1,0,0.2-0.1c0.2-0.2,0.2-0.7,0.2-1v-0.2l0-1.5c0,0,0-0.1,0-0.1c0-0.2,0-0.5,0.1-0.6
	c0.1-0.1,0.1-0.1,0.2-0.1c0.2,0,0.4,0.1,0.7,0.1c0.1,0,0.3,0,0.4-0.1C17.8,24.3,18,24.1,18,23.9C18,23.9,18,23.9,18,23.9L18,23.9z"
	/>
<path class="st0" d="M12.4,24.4c0-0.1,0.1-0.1,0.1-0.3c0,0,0-0.1,0-0.1C12.5,24,12.3,24,12.2,24c0,0-0.1,0-0.1,0c-0.2,0-0.4,0-0.6,0
	c-0.1,0-0.3,0-0.4,0c-0.2,0-0.3,0-0.5,0c-0.1,0-0.3,0-0.4,0.1c-0.1,0-0.4,0.1-0.4,0.3c0,0,0,0,0,0.1c0.1,0.1,0.2,0.1,0.4,0.1
	c0.4,0,1-0.1,1.3-0.1c0.1,0,0.1,0,0.2,0c0.1,0,0.1,0.4,0.1,0.5c0,0,0,0,0,0c0,0.5-0.4,1-0.9,1.4c-0.2,0.2-0.5,0.4-0.6,0.5
	C10.1,27,10,27.1,10,27.2c0,0,0,0,0,0c0,0.1,0.1,0.2,0.2,0.3c0.1,0,0.1,0.1,0.2,0.1c0.2,0,0.3-0.1,0.4-0.1c0.7-0.4,1.5-1.4,1.6-2.1
	c0-0.1,0-0.1,0-0.2C12.5,24.9,12.4,24.7,12.4,24.4C12.4,24.5,12.4,24.4,12.4,24.4"/>
</svg>
