<?xml version="1.0" encoding="utf-8"?>
<!-- Generator: Adobe Illustrator 16.0.0, SVG Export Plug-In . SVG Version: 6.00 Build 0)  -->
<!DOCTYPE svg PUBLIC "-//W3C//DTD SVG 1.1//EN" "http://www.w3.org/Graphics/SVG/1.1/DTD/svg11.dtd">
<svg version="1.1" id="Layer_1" xmlns="http://www.w3.org/2000/svg" xmlns:xlink="http://www.w3.org/1999/xlink" x="0px" y="0px"
	 width="316" height="316" viewBox="0 0 500 500" enable-background="new 0 0 500 500" xml:space="preserve">
<path fill="#8F1329" d="M63.845,155.435c18.974-4.044,38.846-2.391,56.994,5.025L223.237,58.072
	c14.246-14.233,37.876-13.756,52.118,0.506c14.235,14.234,14.235,38.051,0,52.301l-26.269,26.259l-39.382-39.361l-31.221,31.202
	l110.388,110.348l31.197-31.205l-39.352-39.338l25.982-25.991l0.152-0.134c31.77-31.76,31.751-83.244,0-114.985
	c-31.746-31.763-83.331-31.943-115.081-0.2C191.771,27.475,63.743,155.502,63.845,155.435 M344.225,65.084
	c4.053,18.95,2.379,38.837-5.033,56.986l102.401,102.388c14.243,14.25,13.736,37.872-0.502,52.113
	c-14.242,14.25-38.062,14.25-52.32,0l-26.245-26.266l39.367-39.381l-31.201-31.22L260.314,290.101l31.212,31.184l39.341-39.345
	l25.985,25.982l0.152,0.163c31.747,31.743,83.224,31.743,114.992,0c31.751-31.775,31.939-83.333,0.189-115.088
	C472.187,192.993,344.178,64.97,344.225,65.084 M434.763,345.27c-18.971,4.059-38.828,2.356-56.991-5.052L275.37,442.63
	c-14.241,14.252-37.861,13.729-52.091-0.49c-14.26-14.254-14.26-38.065,0-52.318l26.244-26.277l39.376,39.382l31.227-31.189
	L209.755,261.344l-31.211,31.212l39.346,39.348l-25.984,25.979l-0.156,0.162c-31.749,31.748-31.749,83.214,0,114.986
	c31.768,31.735,83.353,31.938,115.103,0.204C306.852,473.235,434.879,345.207,434.763,345.27 M154.474,435.688
	c-4.064-18.971-2.383-38.82,5.012-57.009L57.104,276.277c-14.242-14.225-13.734-37.844,0.499-52.076
	c14.242-14.271,38.059-14.251,52.299,0l26.268,26.253l-39.381,39.383l31.214,31.22l110.37-110.393l-31.205-31.202l-39.36,39.361
	l-25.988-25.98l-0.131-0.164c-31.752-31.76-83.244-31.741-114.996,0.018c-31.752,31.741-31.937,83.32-0.188,115.063
	C26.505,307.762,154.521,435.817,154.474,435.688"/>
</svg>
