<?xml version="1.0" encoding="utf-8"?>
<!-- Generator: Adobe Illustrator 19.0.0, SVG Export Plug-In . SVG Version: 6.00 Build 0)  -->
<svg version="1.1" id="Layer_1" xmlns="http://www.w3.org/2000/svg" xmlns:xlink="http://www.w3.org/1999/xlink" x="0px" y="0px"
	 viewBox="0 0 500 500" style="enable-background:new 0 0 500 500;" xml:space="preserve">
<style type="text/css">
	.st0{fill:#FFFFFF;}
	.st1{fill:#E7290F;}
	.st2{fill:#221815;}
	.st3{fill:#003378;}
</style>
<g id="XMLID_1_">
	<path id="XMLID_71_" class="st0" d="M149.3,248.5v-54.2H89.3v54.2c0,4.6-1,12.5,7.1,19.1c7.8,6.4,14.1,3.4,17.8,5.3
		c3.9,2,4.9,3.7,5,6.7l0,0.8c0-3.4,0.8-5.2,5-7.4c3.7-1.9,10,1.1,17.8-5.3C150.3,261,149.3,253.1,149.3,248.5"/>
	<rect id="XMLID_72_" x="89.8" y="223.6" class="st1" width="58.9" height="12.9"/>
	<path id="XMLID_75_" class="st2" d="M148.8,224.7H89.8v-2.2h58.9V224.7z M148.8,237.6H89.8v-2.2h58.9V237.6z"/>
	<polyline id="XMLID_76_" class="st1" points="112.8,194.5 112.8,272.7 119,276.7 125.8,272.7 125.8,194.5 	"/>
	<polygon id="XMLID_77_" class="st2" points="114,195.6 114,272.7 111.7,272.7 111.7,193.3 126.9,193.3 126.9,272.7 124.6,272.7 
		124.6,195.6 	"/>
	<path id="XMLID_78_" class="st3" d="M119.3,259.1c0.3-0.9,2.9-3.5,5.1-3.9c2.3-0.4,5.1-0.2,7.7-3.1c2.1-2.4,2.1-5.2,2.1-8.5v-33.8
		h-29.9v33.8c0,3.3,0,6.1,2.1,8.5c2.6,3,5.3,2.7,7.7,3.1C116.3,255.7,118.9,258.2,119.3,259.1L119.3,259.1"/>
	<path id="XMLID_81_" class="st2" d="M120.1,258.8c-0.3-0.8-1.3-1.8-2.1-2.5c-0.7-0.6-2.2-1.7-3.7-2c-0.5-0.1-1-0.2-1.4-0.2
		c-2-0.3-3.9-0.5-5.7-2.6c-1.9-2.2-1.9-4.8-1.9-7.9v-33.8l-0.9,0.9h29.9l-0.9-0.9v33.8c0,3.1,0,5.7-1.9,7.9
		c-1.9,2.1-3.7,2.4-5.7,2.6c-0.5,0.1-0.9,0.1-1.4,0.2c-1.5,0.3-3,1.4-3.7,2c-0.9,0.7-1.9,1.7-2.1,2.5l0.9-0.6h-0.1L120.1,258.8
		 M120.2,259.4c0.2-0.6,2.4-2.9,4.4-3.3c0.4-0.1,0.9-0.1,1.3-0.2c2-0.3,4.6-0.6,6.9-3.3c2.3-2.7,2.3-5.9,2.3-9.1v-34.8h-31.8v34.8
		c0,3.2,0,6.4,2.3,9.1c2.3,2.7,4.9,3,6.9,3.3c0.5,0.1,0.9,0.1,1.3,0.2c2,0.4,4.2,2.7,4.4,3.3l1,1.2L120.2,259.4z"/>
	<path id="XMLID_82_" class="st1" d="M119.3,293.6c-10.6,0-19-1.1-31.9-7.9c-14.2-7.4-19-14.2-19-14.2c6-3.6,7.2-9.8,6.9-13.6
		c-0.4-4.3,3.7-10,10.6-6.2c4.8,2.6,5,8.2,2,10.5l-4.9,6.1c3.7,3,8.6,6.2,14.2,8.2c12.8,4.4,22.1,4.4,22.1,4.4h1.8v12.8L119.3,293.6
		"/>
	<path id="XMLID_83_" class="st1" d="M119.3,293.6c10.6,0,19-1.1,31.9-7.9c14.2-7.4,18.9-14.2,18.9-14.2c-6-3.6-7.2-9.8-6.9-13.6
		c0.4-4.3-3.7-10-10.6-6.2c-4.7,2.6-5,8.2-2,10.5l4.9,6.1c-3.7,3-8.6,6.2-14.2,8.2c-12.8,4.4-22.1,4.4-22.1,4.4h-1.8v12.8
		L119.3,293.6"/>
	<path id="XMLID_84_" class="st2" d="M86.9,286.7c-14.3-7.5-19.3-14.4-19.4-14.6l0.3-1.6c5-2.9,6.4-7.8,6.4-11.4c0-0.4,0-0.8,0-1.1
		l0-0.7c0-3.7,2.7-7.9,7.5-8c1.5,0,3.1,0.4,4.8,1.4c3.1,1.7,4.6,4.5,4.6,7.2c0,0.7-0.1,1.4-0.3,2.1l0.4,0.4l-7.1,8.5l-1.7-1.4
		l2.7-3.2c-1.3-0.2-2.3-0.7-3.1-1.4v3.1h-2.2v-6.6l2.2-0.4c0,0,0.4,0.8,1,1.7c0.7,0.9,1.6,1.5,2.5,1.5c0.5,0,1.1-0.2,1.9-0.8
		c1-0.7,1.5-2,1.6-3.4c0-1.9-1-4-3.4-5.2c-1.4-0.8-2.7-1.1-3.7-1.1c-3.2,0-5.2,3-5.2,5.7l0,0.5c0,0.4,0.1,0.9,0.1,1.3
		c0,3.8-1.4,9.1-6.4,12.6l0.1,0.2c0.6,0.7,1.7,1.8,3.1,3c2.9,2.6,7.6,6.1,14.6,9.7c12.8,6.7,20.9,7.7,31.4,7.7v2.2h-0.2
		C108.5,294.7,99.9,293.5,86.9,286.7"/>
	<path id="XMLID_85_" class="st2" d="M96.8,277.5c-13.1-4.6-22.1-15.8-22.2-15.9l1.7-1.4c0,0,2.2,2.7,5.9,5.9
		c3.7,3.3,9.1,7.1,15.3,9.2c6.3,2.2,11.8,3.3,15.6,3.8c3.9,0.5,6.1,0.5,6.1,0.5v2.3C119.2,282,109.7,282,96.8,277.5"/>
	<path id="XMLID_86_" class="st2" d="M119.3,294.7v-2.2c10.5,0,18.5-1,31.4-7.7c10.5-5.5,15.7-10.6,17.7-12.8l0.1-0.2
		c-5-3.5-6.4-8.8-6.4-12.6c0-0.5,0-0.9,0.1-1.3l0-0.5c0-2.7-2-5.7-5.2-5.7c-1,0-2.3,0.3-3.7,1.1c-2.4,1.3-3.4,3.4-3.4,5.2
		c0,1.4,0.6,2.6,1.6,3.4c0.8,0.6,1.4,0.8,1.9,0.8c0.9,0,1.8-0.7,2.5-1.5c0.7-0.8,1-1.7,1-1.7l2.2,0.4v6.6h-2.2v-3.1
		c-0.8,0.7-1.8,1.3-3.1,1.4l2.7,3.2l-1.7,1.4l-7.1-8.5l0.4-0.4c-0.2-0.7-0.3-1.4-0.3-2.1c0-2.7,1.5-5.6,4.6-7.2
		c1.7-0.9,3.3-1.4,4.8-1.4c4.8,0,7.5,4.3,7.5,8l0,0.7c0,0.3,0,0.7,0,1.1c0,3.5,1.4,8.4,6.4,11.4l0.3,1.6c-0.1,0.1-5,7.1-19.3,14.6
		c-13,6.8-21.7,8-32.3,8H119.3"/>
	<path id="XMLID_87_" class="st2" d="M119.2,279.8c0,0,2.3,0,6.2-0.5c3.9-0.6,9.4-1.6,15.7-3.8c6.2-2.2,11.5-6,15.3-9.2
		c3.8-3.2,5.9-5.9,5.9-5.9l1.7,1.4c-0.1,0.1-9,11.2-22.2,15.9c-12.9,4.5-22.5,4.5-22.6,4.5V279.8"/>
	<polygon id="XMLID_88_" class="st0" points="92.1,284.8 91.4,284.5 92.9,279.1 93.5,279.4 92.3,283.4 92.3,283.4 94.4,279.8 
		95.1,280.1 93.9,284.1 94,284.1 96,280.5 96.6,280.7 93.7,285.5 93.1,285.2 94.2,281.1 94.2,281.1 	"/>
	<path id="XMLID_91_" class="st0" d="M97.7,284.8l0.4-2.4h0l-1.2,2.1L97.7,284.8z M95.3,286.1l2.8-4.9l0.7,0.3l-0.9,5.6l-0.6-0.2
		l0.2-1.2l-1.1-0.4l-0.6,1L95.3,286.1z"/>
	<polygon id="XMLID_92_" class="st0" points="100.6,285.3 99.9,287.6 99.3,287.5 100.8,282.1 101.4,282.3 100.8,284.4 101.9,284.7 
		102.5,282.6 103.1,282.8 101.6,288.1 101,287.9 101.6,285.6 	"/>
	<path id="XMLID_93_" class="st0" d="M106.8,287.2l0.2-0.9l1.2,0.2l-0.5,2.7l-0.7,0.1c-0.1,0-0.3,0-0.7-0.1
		c-0.6-0.1-1.2-0.9-0.8-3.1c0.4-2.2,1.3-2.7,1.9-2.6c0.8,0.2,1.3,0.7,1,2l-0.7-0.1c0.1-0.7-0.1-1-0.4-1c-0.6-0.1-1,0.6-1.2,1.8
		c-0.2,1.2-0.1,2.1,0.4,2.1l0.6,0l0.2-1.1L106.8,287.2"/>
	<path id="XMLID_96_" class="st0" d="M110.2,286.6l0.5,0.1c0.3,0,0.5-0.2,0.5-0.7c0.1-0.5-0.1-0.7-0.4-0.7l-0.5-0.1L110.2,286.6
		 M109.8,289.7l-0.6-0.1l0.7-5.5l1.2,0.1c0.5,0.1,1,0.4,0.8,1.6c-0.1,0.7-0.4,1.2-0.8,1.3l0,0c0.5,0.2,0.4,0.7,0.4,1.5
		c0,0.4-0.1,1,0,1.3l-0.7-0.1c0-0.5,0.1-1,0.1-1.5c0-0.3,0-0.7-0.2-0.8l-0.7-0.1L109.8,289.7L109.8,289.7z"/>
	<path id="XMLID_99_" class="st0" d="M113.7,287.3c-0.1,0.9,0,2,0.6,2.1c0.6,0,0.8-1,0.9-2c0.1-0.9,0-2-0.6-2.1
		C113.9,285.3,113.7,286.4,113.7,287.3 M113,287.3c0.1-1.6,0.6-2.9,1.6-2.8c1,0.1,1.3,1.3,1.2,3c-0.1,1.6-0.6,2.9-1.6,2.8
		C113.3,290.2,112.9,288.9,113,287.3"/>
	<path id="XMLID_100_" class="st0" d="M119.7,284.7l0,3.5c0,1.5-0.6,2.2-1.3,2.2c-0.7,0-1.3-0.7-1.3-2.2v-3.5h0.6v3
		c0,0.9,0,1.8,0.6,1.8c0.6,0,0.6-0.8,0.7-1.8l0-3H119.7"/>
	<path id="XMLID_103_" class="st0" d="M121.7,287.2c0.3,0,0.8,0.2,0.8-0.8c0-1-0.5-0.7-0.8-0.7L121.7,287.2 M121.2,290.3l-0.2-5.5
		l0.9,0c0.7,0,1.2,0.2,1.3,1.6c0,1-0.3,1.7-1,1.7l-0.4,0l0.1,2.1L121.2,290.3z"/>
	<path id="XMLID_106_" class="st0" d="M127,287.1c0.1,0.9,0.4,2,1,1.9c0.6-0.1,0.6-1.2,0.5-2.1c-0.1-1-0.4-2-1-1.9
		C126.8,285.1,126.8,286.1,127,287.1 M126.3,287.2c-0.2-1.6,0.1-2.9,1-3c1-0.1,1.6,1.1,1.8,2.7c0.2,1.6-0.1,2.9-1,3
		C127.1,290,126.5,288.8,126.3,287.2"/>
	<polygon id="XMLID_107_" class="st0" points="130.9,289.3 129.9,283.9 131.7,283.6 131.9,284.5 130.7,284.7 130.9,286 132.1,285.8 
		132.2,286.7 131.1,286.9 131.5,289.2 	"/>
	<polygon id="XMLID_108_" class="st0" points="136,285.8 136.6,288.1 136,288.3 134.6,282.9 135.2,282.8 135.8,284.9 136.9,284.6 
		136.3,282.5 136.9,282.3 138.3,287.7 137.7,287.8 137.1,285.5 	"/>
	<path id="XMLID_111_" class="st0" d="M139.5,284.4c0.3,0.9,0.7,1.9,1.3,1.7c0.6-0.2,0.4-1.3,0.1-2.2c-0.3-0.9-0.8-1.9-1.3-1.7
		C139,282.5,139.2,283.5,139.5,284.4 M138.9,284.6c-0.5-1.6-0.5-2.9,0.4-3.2c0.9-0.3,1.7,0.7,2.2,2.3c0.5,1.6,0.5,2.9-0.4,3.2
		C140.2,287.2,139.4,286.2,138.9,284.6"/>
	<path id="XMLID_112_" class="st0" d="M143.8,281.6c-0.2-0.5-0.5-0.7-0.8-0.6c-0.2,0.1-0.3,0.4-0.2,0.8c0.2,0.6,0.5,0.5,0.8,0.5
		c0.5,0,1.2,0,1.6,1c0.5,1.3,0.1,2-0.5,2.2c-0.6,0.2-1.2,0-1.7-1.3l0.6-0.2c0.2,0.6,0.5,0.9,0.8,0.8c0.2-0.1,0.5-0.4,0.3-0.9
		c-0.3-0.6-0.6-0.5-0.9-0.5c-0.4,0-1.1-0.2-1.5-1.1c-0.5-1.2-0.1-1.9,0.5-2.1c0.5-0.2,1.2,0.2,1.6,1.2L143.8,281.6"/>
	<path id="XMLID_115_" class="st0" d="M146.5,281.4c0.3-0.2,0.8-0.2,0.4-1c-0.4-0.9-0.7-0.5-1.1-0.4L146.5,281.4 M147.2,284.5
		l-2.3-5l0.8-0.4c0.6-0.3,1.2-0.2,1.8,1.1c0.4,0.9,0.4,1.7-0.2,2l-0.4,0.2l0.9,1.9L147.2,284.5z"/>
	
		<rect id="XMLID_116_" x="149" y="277.6" transform="matrix(-0.8926 0.4509 -0.4509 -0.8926 408.973 463.3517)" class="st0" width="0.6" height="5.5"/>
	<polygon id="XMLID_117_" class="st0" points="151.8,276.9 151,277.4 153.3,281.4 152.7,281.7 150.5,277.7 149.7,278.1 149.2,277.3 
		151.3,276.1 	"/>
	<path id="XMLID_120_" class="st0" d="M155.2,277.8l-1.6-1.8l0,0l0.9,2.2L155.2,277.8L155.2,277.8z M154.8,280.5l-2.1-5.2l0.6-0.4
		l3.9,4.1l-0.5,0.3l-0.8-0.9l-1,0.6l0.4,1.1L154.8,280.5L154.8,280.5z"/>
	<polygon id="XMLID_121_" class="st0" points="159.3,276.3 159.8,277.1 158.3,278.2 155,273.7 155.5,273.3 158.3,277.1 	"/>
	<path id="XMLID_122_" class="st0" d="M159.6,272.2c-0.4-0.4-0.7-0.5-0.9-0.3c-0.2,0.2-0.2,0.5,0.1,0.8c0.4,0.5,0.6,0.3,0.9,0.2
		c0.5-0.1,1.1-0.4,1.9,0.5c0.9,1,0.7,1.8,0.2,2.2c-0.5,0.4-1.2,0.4-2.1-0.7l0.5-0.4c0.4,0.5,0.8,0.7,1,0.5c0.2-0.2,0.4-0.5,0-0.9
		c-0.4-0.5-0.8-0.3-1.1-0.2c-0.4,0.1-1.1,0.2-1.7-0.5c-0.8-1-0.7-1.8-0.3-2.2c0.4-0.4,1.1-0.2,1.9,0.6L159.6,272.2"/>
	<path id="XMLID_125_" class="st2" d="M90.5,248.5c0,1,0,2,0,3.2c0,4.5,0.6,10,6.8,15.1c7.5,6.1,12.9,3,17.6,5.2
		c2.2,1.1,3.6,2.3,4.5,3.7c0.9-1.4,2.3-2.6,4.5-3.7c4.7-2.2,10.1,0.9,17.6-5.2c6.2-5.1,6.7-10.6,6.8-15.1c0-1.1,0-2.2,0-3.1v-53.1
		H90.5V248.5 M118.2,280.4v-0.6l0-0.1c-0.2-2.7-0.7-3.7-4.4-5.7c-2.7-1.7-9.8,1.2-18-5.5c-6.9-5.6-7.6-12.2-7.6-16.9
		c0-1.2,0-2.3,0-3.2v-54.2v-1.1h62.2v1.1v54.2c0,0.9,0,2,0,3.1c0,4.7-0.7,11.3-7.6,16.9c-8.2,6.7-15.3,3.8-18,5.5
		c-4,2.2-4.3,3.2-4.4,6.4L118.2,280.4L118.2,280.4L118.2,280.4z"/>
	<path id="XMLID_130_" class="st0" d="M111,241.5h7v1.2h-2.1v3.7c0,0.4,0.1,0.6,0.4,0.6h0.5l0.3-0.2c0.1-0.1,0.1-0.4,0.2-0.9
		l1.1,0.4c-0.1,0.8-0.2,1.3-0.4,1.5c-0.2,0.3-0.5,0.4-0.8,0.4h-1.1c-0.8,0-1.3-0.4-1.3-1.1v-4.4h-1.2c-0.1,1-0.2,1.8-0.4,2.4
		c-0.2,0.7-0.4,1.3-0.7,1.7c-0.4,0.6-1.1,1.1-2.2,1.5l-0.7-1.2c0.7-0.2,1.3-0.5,1.8-0.9c0.4-0.4,0.7-1,0.9-1.7
		c0.1-0.5,0.2-1.1,0.2-1.9H111V241.5 M112.5,238.7h3.7v1.2h-3.7V238.7z M110,234.6l1,0.9l-1.3,3.8c0.6,1.2,0.8,2.3,0.9,3.3
		c0,0.8-0.2,1.5-0.5,2c-0.3,0.5-0.7,0.7-1.3,0.7l-0.4-1.4c0.5-0.1,0.8-0.3,0.9-0.5c0.1-0.2,0.2-0.5,0.2-1c0-0.7-0.3-1.7-0.9-2.9
		l1.1-3.5h-1.4v12.4h-1.1v-13.6h2.6L110,234.6L110,234.6z M113.8,234.5l1.1,0.1l0.3,0.2l-0.3,0.4v0.7h2.9v3.6h-1.1v-2.3H112v2.3H111
		v-3.6h2.9V234.5z"/>
	<path id="XMLID_136_" class="st0" d="M127.3,220.2h2.2V219h-2.2V220.2z M127.3,222.6h2.2v-1.2h-2.2V222.6z M126.1,221.3H124v1.2
		h2.2V221.3z M126.1,219H124v1.2h2.2V219z M126.1,213.9l1.1,0.1l0.3,0.2l-0.2,0.4v0.7h4.6v1.3h-4.6v1.1h3.3v6h-2.9
		c0.7,0.7,1.4,1.2,2.1,1.6c0.6,0.3,1.5,0.7,2.7,1l-1.2,1.3c-0.9-0.4-1.7-0.8-2.3-1.3c-0.6-0.4-1.2-1-1.8-1.8v3.8h-1.2v-3.8
		c-0.6,0.8-1.2,1.4-1.8,1.8c-0.7,0.5-1.4,0.9-2.4,1.2l-1-1.3c1.1-0.3,2.1-0.8,2.9-1.3c0.5-0.3,1.1-0.8,1.7-1.4h-2.7v-6h3.3v-1.1
		h-4.6v-1.3h4.6L126.1,213.9L126.1,213.9z"/>
	<path id="XMLID_143_" class="st0" d="M125.4,237.6h2.6v-1.2h-2.6V237.6z M124.5,240.1h1.6v-1.4h-1.6V240.1z M127.2,240.1h1.6v-1.4
		h-1.6V240.1z M124.5,242.9h1.6v-1.5h-1.6V242.9z M127.2,242.9h1.6v-1.5h-1.6V242.9z M124.3,234.1l1,0.1l0.3,0.2l-0.2,0.4v0.3h2.6
		v-1l1,0.1l0.3,0.2l-0.2,0.4v0.3h2.9v1.2h-2.9v1.2h2.5v1.2h-1.7v1.4h2.3v1.2h-2.3v1.5h1.6v1.2h-4.3v1.1h5v1.2h-5v1.8h-1.1v-1.8h-5
		v-1.2h5V244h-4.4v-1.2h1.7v-1.5h-2.3v-1.2h2.3v-1.4h-1.9v-1.2h2.7v-1.2h-3v-1.2h3V234.1L124.3,234.1z"/>
	<path id="XMLID_147_" class="st0" d="M107.1,225.9H118v1.4h-10.9V225.9z M108.4,220.3h8.4v1.4h-8.4V220.3z M107.8,215.2h9.7v1.4
		h-9.7V215.2z"/>
	<path id="XMLID_148_" class="st2" d="M78.7,305.1c0-0.7-0.5-1.1-0.9-1.4l-0.6-0.4c-0.3-0.2-0.6-0.5-0.6-0.9c0-0.3,0.2-0.8,0.9-0.8
		c0.7,0,0.9,0.5,1,0.8l0.2,0c0-0.3-0.1-0.7-0.1-0.9l-0.2-0.1l-0.7-0.1c-0.9,0-1.5,0.6-1.5,1.3c0,0.6,0.4,1,0.8,1.3l0.7,0.5
		c0.5,0.3,0.6,0.7,0.6,1c0,0.4-0.3,0.8-0.9,0.8c-0.8,0-1.1-0.7-1.3-1.1l-0.2,0c0,0.3,0.1,0.9,0.2,1c0.1,0.1,0.5,0.3,1.1,0.3
		C78.1,306.4,78.7,305.9,78.7,305.1"/>
	<path id="XMLID_149_" class="st2" d="M85.5,305.2c0,0.8,0,0.9-0.4,0.9l-0.2,0l0,0.2c0.4,0,0.6,0,0.9,0c0.3,0,0.5,0,0.9,0l0-0.2
		l-0.2,0c-0.4,0-0.4-0.1-0.4-0.9v-2.6c0-0.8,0-0.9,0.4-0.9l0.2,0l0-0.2c-0.4,0-0.6,0-0.9,0c-0.3,0-0.6,0-0.9,0l0,0.2l0.2,0
		c0.4,0,0.4,0.2,0.4,0.9V305.2"/>
	<path id="XMLID_150_" class="st2" d="M97.4,303.3c0-0.3,0-1.2,0.1-1.5l0.4-0.2l0.1,0l0-0.2c-0.2,0-0.4,0-0.7,0c-0.3,0-0.5,0-0.9,0
		l0,0.2l0.1,0l0.4,0.1c0.1,0.2,0.1,1.2,0.1,1.5v1.6l0,0.3h0c-0.4-0.3-0.7-0.7-1.2-1.3l-0.7-0.8c-0.2-0.3-1.1-1.2-1.2-1.6l-0.3,0
		c-0.1,0-0.5,0-0.8,0l0,0.2l0.1,0l0.4,0.2l0.2,0.5v2.1c0,0.3,0,1.2-0.1,1.5l-0.3,0.1l-0.2,0l0,0.2c0.3,0,0.5,0,0.8,0
		c0.3,0,0.5,0,0.9,0l0-0.2l-0.2,0l-0.4-0.1c-0.1-0.2-0.1-1.2-0.1-1.5v-1.6l0-0.5h0l0.8,1l1.7,1.9c0.6,0.7,0.9,1,0.9,1.1l0.1-0.1
		l0-1.3V303.3"/>
	<path id="XMLID_151_" class="st2" d="M104.1,303.9c0,0.9,0.5,1.6,1,2c0.5,0.4,1.2,0.5,1.8,0.5c0.5,0,1-0.1,1.2-0.2l0.3-0.1
		c0.1-0.1,0.3-0.6,0.3-1l-0.2,0c-0.2,0.4-0.6,1-1.5,1c-1.2,0-2.2-0.8-2.2-2.4c0-1.5,0.9-2.2,2.1-2.2c1,0,1.4,0.6,1.5,1.1l0.2,0
		c-0.1-0.4-0.1-0.9-0.1-1.1l-0.2,0c-0.3-0.1-0.9-0.2-1.3-0.2c-0.8,0-1.4,0.2-2,0.6C104.5,302.4,104.1,303.1,104.1,303.9"/>
	<path id="XMLID_152_" class="st2" d="M115.3,305.2c0,0.8,0,0.9-0.5,0.9l-0.2,0l0,0.2c0.4,0,0.7,0,1,0h0.7c0.6,0,1.3,0,2,0l0.3-1
		l-0.2-0.1c-0.2,0.4-0.4,0.6-0.5,0.7c-0.2,0.1-0.4,0.1-0.9,0.1c-0.6,0-0.8-0.1-0.9-0.2c-0.1-0.1-0.1-0.4-0.1-0.8v-1l0.2-0.2h0.4
		l0.6,0l0.2,0.3l0.1,0.3l0.2,0l0-0.7l0-0.7l-0.2,0l-0.1,0.3l-0.2,0.3c-0.1,0-0.3,0-0.6,0h-0.4l-0.2-0.2V302l0.2-0.3h0.5
		c0.3,0,0.6,0,0.7,0c0.4,0.1,0.4,0.3,0.6,0.7l0.2,0c0-0.3-0.1-0.8-0.1-1c-0.1,0-0.5,0-1,0h-1.4c-0.3,0-0.6,0-0.9,0l0,0.2l0.1,0
		c0.4,0,0.4,0.2,0.4,0.9V305.2"/>
	<path id="XMLID_153_" class="st2" d="M133,305.4c0,0.6,0,0.7-0.3,0.7l-0.3,0l0,0.2l0.9,0l0.9,0l0-0.2l-0.3,0
		c-0.3,0-0.3-0.1-0.3-0.7v-2.8c0-0.4,0-0.8,0-0.9l-0.1,0c-0.2,0.1-0.6,0.3-1.2,0.4l0,0.2l0.3,0c0.3,0,0.4,0.2,0.4,0.7V305.4"/>
	<path id="XMLID_157_" class="st2" d="M142.5,301.9c0.5,0,0.8,0.4,0.8,0.9c0,0.4-0.3,0.8-0.6,1c-0.5-0.2-1-0.5-1-1
		C141.7,302.3,142,301.9,142.5,301.9 M142.4,306.2c-0.5,0-0.9-0.5-0.9-1c0-0.4,0.2-0.9,0.7-1.1c0.5,0.2,1.1,0.6,1.1,1.2
		C143.3,305.9,143,306.2,142.4,306.2 M142.5,301.7c-0.8,0-1.4,0.4-1.3,1.2c0,0.6,0.4,0.9,0.8,1.2c-0.5,0.2-1,0.6-1,1.3
		c0,0.9,0.7,1.2,1.4,1.2c0.8,0,1.4-0.5,1.4-1.2c0-0.7-0.5-1.1-1-1.4c0.4-0.2,0.9-0.5,0.9-1.1C143.7,302,143.2,301.7,142.5,301.7"/>
	<path id="XMLID_158_" class="st2" d="M152.4,302.2l0.2,0.3l-2.1,4.2l0.2,0.1l1.9-3.8c0.3-0.5,0.5-0.9,0.7-1.2l0-0.1
		c-0.1,0-0.6,0-1,0H151c-0.4,0-0.7,0-0.8,0l-0.2,0.8l0.2,0c0.2-0.3,0.4-0.4,0.8-0.4H152.4"/>
	<path id="XMLID_161_" class="st2" d="M160.7,301.9c0.8,0,0.9,1.5,0.9,2.2c0,0.7-0.1,2.2-0.9,2.2c-0.8,0-0.9-1.5-0.9-2.2
		C159.9,303.4,159.9,301.9,160.7,301.9 M160.7,301.7c-1.1,0-1.5,1.3-1.5,2.4c0,1.1,0.4,2.4,1.5,2.4c1.1,0,1.5-1.2,1.5-2.4
		C162.2,302.9,161.8,301.7,160.7,301.7"/>
	<rect id="XMLID_162_" x="75.9" y="298.4" class="st2" width="86.3" height="0.4"/>
	<polygon id="XMLID_163_" class="st2" points="199.3,282.8 196.1,282.8 196.1,297.4 192.7,297.4 192.7,282.8 189.5,282.8 
		189.5,279.5 199.3,279.5 	"/>
	<path id="XMLID_164_" class="st2" d="M201.5,279.5h3.4v11.6c0,0.8,0,1.4,0.1,1.7c0.1,0.6,0.5,1.1,1,1.4c0.4,0.3,0.9,0.4,1.4,0.4
		c1.2,0,2.1-0.5,2.4-1.5c0.2-0.4,0.2-1.2,0.2-2.4v-11.2h3.4v10.7c0,1.5-0.1,2.5-0.2,3.1c-0.2,1-0.6,1.9-1.3,2.7
		c-1.1,1.3-2.6,1.9-4.5,1.9c-1.2,0-2.2-0.3-3.2-0.8c-1-0.6-1.8-1.4-2.2-2.4c-0.4-0.9-0.6-2.4-0.6-4.5V279.5"/>
	<polygon id="XMLID_165_" class="st2" points="217.5,279.5 220.7,279.5 228.3,291.3 228.3,279.5 231.7,279.5 231.7,297.4 
		228.4,297.4 220.8,285.6 220.8,297.4 217.5,297.4 	"/>
	<path id="XMLID_166_" class="st2" d="M252.1,282.4l-2.4,2.4c-1.5-1.6-3.3-2.4-5.3-2.4c-1.7,0-3.2,0.6-4.3,1.7
		c-1.2,1.1-1.8,2.6-1.8,4.3c0,1.8,0.6,3.3,1.9,4.4c1.2,1.2,2.7,1.8,4.5,1.8c2.3,0,3.9-1,4.9-3.1h-5.1v-3.2h8.9l0,0.8
		c0,1.5-0.4,3-1.2,4.5c-1.7,2.9-4.2,4.3-7.6,4.3c-1.8,0-3.4-0.4-4.8-1.2c-1.5-0.8-2.7-2-3.5-3.5c-0.8-1.5-1.3-3.1-1.3-4.8
		c0-2.4,0.8-4.4,2.3-6.2c1.8-2.1,4.2-3.1,7.2-3.1C247.5,279,250,280.1,252.1,282.4"/>
	<polygon id="XMLID_167_" class="st2" points="272.4,285.8 269.2,297.4 266,297.4 262,279.5 265.3,279.5 267.9,290.9 271,279.5 
		273.9,279.5 277.1,290.9 279.6,279.5 282.9,279.5 278.9,297.4 275.7,297.4 	"/>
	<path id="XMLID_170_" class="st2" d="M292.7,284.2l-2.4,6.1h4.7L292.7,284.2L292.7,284.2z M291,279.5h3.4l6.8,17.9h-3.5l-1.4-3.7
		h-7.2l-1.4,3.7h-3.5L291,279.5z"/>
	<polygon id="XMLID_171_" class="st2" points="307.2,297.4 303.8,297.4 303.8,279.5 307.2,279.5 307.2,286.2 313.2,286.2 
		313.2,279.5 316.6,279.5 316.6,297.4 313.2,297.4 313.2,289.5 307.2,289.5 	"/>
	<path id="XMLID_172_" class="st2" d="M343.8,282.6l-2.4,2.3c-1.6-1.7-3.4-2.6-5.4-2.6c-1.7,0-3.1,0.6-4.3,1.8
		c-1.2,1.2-1.7,2.6-1.7,4.3c0,2.5,1,4.3,3,5.4c0.9,0.5,2,0.8,3.1,0.8c1.1,0,2.1-0.2,3-0.7c0.7-0.4,1.5-1,2.4-1.9l2.3,2.4
		c-1.2,1.2-2.4,2.1-3.5,2.6c-1.2,0.6-2.6,0.9-4.2,0.9c-2.8,0-5-0.9-6.8-2.6c-1.8-1.8-2.6-4-2.6-6.8c0-3.6,1.5-6.4,4.6-8.1
		c1.5-0.8,3.1-1.3,4.8-1.3C339.2,279,341.8,280.2,343.8,282.6"/>
	<path id="XMLID_175_" class="st2" d="M355.1,282.3c-1.7,0-3.1,0.6-4.2,1.8c-1.1,1.2-1.6,2.6-1.6,4.3c0,2,0.7,3.5,2.1,4.7
		c1.1,0.9,2.3,1.4,3.8,1.4c1.6,0,3-0.6,4.1-1.8c1.1-1.2,1.6-2.6,1.6-4.3c0-1.7-0.6-3.1-1.6-4.3C358.2,282.9,356.8,282.3,355.1,282.3
		 M355.2,279c2.6,0,4.7,0.9,6.5,2.8c1.8,1.8,2.6,4.1,2.6,6.7c0,2.6-0.9,4.8-2.6,6.6c-1.8,1.8-3.9,2.7-6.5,2.7
		c-2.6,0-4.8-0.9-6.6-2.7c-1.8-1.8-2.7-4-2.7-6.7c0-1.7,0.4-3.3,1.2-4.7c0.8-1.4,2-2.6,3.4-3.4C352,279.4,353.5,279,355.2,279"/>
	<polygon id="XMLID_176_" class="st2" points="375.8,297.4 367.5,297.4 367.5,279.5 370.9,279.5 370.9,294.1 375.8,294.1 	"/>
	<polygon id="XMLID_177_" class="st2" points="386.7,297.4 378.4,297.4 378.4,279.5 381.7,279.5 381.7,294.1 386.7,294.1 	"/>
	<polygon id="XMLID_178_" class="st2" points="398.9,297.4 389.2,297.4 389.2,279.5 398.9,279.5 398.9,282.8 392.6,282.8 392.6,286 
		398.9,286 398.9,289.3 392.6,289.3 392.6,294 398.9,294 	"/>
	<path id="XMLID_179_" class="st2" d="M418.4,282.4l-2.4,2.4c-1.5-1.6-3.3-2.4-5.3-2.4c-1.7,0-3.2,0.6-4.3,1.7
		c-1.2,1.1-1.8,2.6-1.8,4.3c0,1.8,0.6,3.3,1.9,4.4c1.2,1.2,2.7,1.8,4.5,1.8c2.3,0,3.9-1,4.9-3.1h-5.1v-3.2h8.9l0,0.8
		c0,1.5-0.4,3-1.2,4.5c-1.6,2.9-4.2,4.3-7.6,4.3c-1.8,0-3.4-0.4-4.8-1.2c-1.5-0.8-2.6-2-3.5-3.5c-0.8-1.5-1.3-3.1-1.3-4.8
		c0-2.4,0.8-4.4,2.3-6.2c1.8-2.1,4.2-3.1,7.2-3.1C413.8,279,416.4,280.1,418.4,282.4"/>
	<polygon id="XMLID_180_" class="st2" points="432.5,297.4 422.8,297.4 422.8,279.5 432.5,279.5 432.5,282.8 426.1,282.8 426.1,286 
		432.5,286 432.5,289.3 426.1,289.3 426.1,294 432.5,294 	"/>
	<path id="XMLID_186_" class="st2" d="M188.8,239H201v-3.3l2.9,0.3c0.5,0,0.8,0.2,0.8,0.5c0,0.2-0.2,0.5-0.6,0.8v1.7h12.2v2.9h-12.2
		v2.4h8.7V258h-7.3c1.6,1.4,3.3,2.5,4.9,3.3c1.8,0.9,4.2,1.7,7.4,2.7l-3.1,3.1c-2.6-1.1-4.7-2.2-6.2-3.3c-1.5-1-3-2.3-4.4-3.9v7.3
		h-3v-7.1c-1.6,1.6-3.1,2.9-4.6,4c-1.8,1.2-3.9,2.2-6.4,3l-2.6-2.9c3-0.9,5.7-2,7.9-3.2c1.3-0.7,2.7-1.7,4.1-3h-7v-13.7h8.6v-2.4
		h-12.2L188.8,239L188.8,239z M195.3,249.9h5.7v-2.7h-5.7V249.9z M201,252.5h-5.7v2.7h5.7V252.5z M204.1,249.9h5.8v-2.7h-5.8V249.9z
		 M209.8,252.5h-5.8v2.7h5.8V252.5z"/>
	<path id="XMLID_193_" class="st2" d="M224,238.5h7.9v-2.2l2.8,0.3c0.5,0,0.8,0.2,0.8,0.4c0,0.2-0.2,0.5-0.6,0.8v0.7h6.9v-2.2
		l2.8,0.3c0.5,0,0.8,0.2,0.8,0.4c0,0.2-0.2,0.5-0.6,0.8v0.7h7.7v2.8h-7.7v2.1h-2.9v-2.1h-6.9v2.1h-2.9v-2.1H224V238.5z M226.6,244.1
		h23.1v2.7h-3.7v3.1h5.3v2.8h-5.3v3.4h4.6v2.7h-10.7v2.6h10v2.8h-10v4.2H237v-4.2h-10.2v-2.8H237v-2.6h-11v-2.7h4.8v-3.4h-5.6v-2.8
		h5.6v-3.1h-4.2V244.1z M237,246.8h-3.4v3.1h3.4V246.8z M237,252.7h-3.4v3.4h3.4V252.7z M243.3,246.8h-3.4v3.1h3.4V246.8z
		 M243.3,252.7h-3.4v3.4h3.4V252.7z"/>
	<path id="XMLID_198_" class="st2" d="M268.8,238.6c-0.2,0-0.4,0-0.6,0.1c-1.1,0.3-2.3,0.7-3.6,1v1.5h4.3v2.4h-4.3v1.8h4.3v2.4h-4.3
		v1.8h19v-1.8h-4.2v-2.4h4.2v-1.8h-4.2v-2.4h4.2v-1.8h-4.3v-2.7h7.1v12.9h2.2v7.1h-2.8v-4.4h-23.1v4.4h-2.8v-7.1h2v-13l1.4,0.8
		c0.7-0.1,1.4-0.3,2.1-0.5c0.9-0.3,1.7-0.6,2.4-1.1l1.8,2c0.2,0.2,0.3,0.4,0.3,0.7c0,0.2-0.1,0.2-0.3,0.2L268.8,238.6L268.8,238.6z
		 M279.6,253.5c0.3,0,0.5,0.1,0.7,0.3l1.4,1.1c0.2,0.1,0.3,0.3,0.3,0.4c0,0.3-0.2,0.6-0.6,0.8l-4.9,3.8h11.6v2.8h-12.5v1.7
		c0,1.4-0.4,2.4-1.2,3.1c-0.6,0.7-2.3,1-5,1l-1.1-3.1h2.9c1,0,1.6-0.5,1.6-1.6v-1.1H260V260h12.8v-1.7l1.7,0.2l2.2-2.2h-10.4v-2.5
		h12.5L279.6,253.5L279.6,253.5z M276.2,236.2l1.8,1c0.2,0.1,0.3,0.2,0.3,0.3c0,0.3-0.2,0.4-0.6,0.6c-0.6,0.6-1.1,1-1.6,1.4
		c0.7,0.5,1.4,1.1,2.1,1.7l-1.6,1.6c-0.8-0.7-1.5-1.3-2.3-1.9c-0.8,0.6-1.8,1.1-2.9,1.8l-1.5-1.6c0.9-0.5,1.7-1,2.5-1.5
		c-0.8-0.5-1.6-1-2.3-1.4l1.5-1.6c0.9,0.5,1.8,1,2.6,1.6C274.9,237.6,275.6,237,276.2,236.2 M276.3,243.1l1.8,1
		c0.2,0.1,0.3,0.2,0.3,0.3c0,0.3-0.2,0.4-0.6,0.6c-0.5,0.6-1.1,1-1.6,1.4c0.6,0.5,1.2,1,1.8,1.5l-1.6,1.6c-0.7-0.7-1.3-1.3-2-1.8
		c-0.8,0.6-1.8,1.2-2.9,1.8l-1.5-1.6c1-0.5,1.9-1.1,2.6-1.6c-0.8-0.7-1.7-1.2-2.5-1.7l1.5-1.5c1,0.6,1.9,1.2,2.8,1.9
		C275.1,244.4,275.7,243.8,276.3,243.1"/>
	<path id="XMLID_203_" class="st2" d="M297.5,237.5h5.8c0.2-0.3,0.3-0.4,0.4-0.4l2.5,2.2l-3.2,8.7c1.8,2.4,2.6,4.6,2.6,6.6
		c0,2.1-0.5,3.9-1.4,5.1c-0.9,1.2-2.1,1.8-3.5,1.8l-1.2-3.1c1.4-0.3,2.3-0.8,2.6-1.5c0.4-0.6,0.6-1.5,0.6-2.7c0-1.5-0.9-3.4-2.7-5.9
		l2.6-7.9h-3.8v28.5h-2.8v-31.3H297.5L297.5,237.5z M306.3,252.6h18.2v2.8H319v8.6c0,0.9,0.4,1.4,1.1,1.4h0.9c0.5,0,0.8-0.1,1-0.5
		c0.2-0.3,0.4-1.2,0.6-2.8l2.9,0.9c-0.3,2.1-0.7,3.4-1.3,4.1c-0.6,0.7-1.4,1-2.4,1h-2.4c-2.2,0-3.2-0.8-3.2-2.5v-10.2h-2.5
		c-0.1,3.5-0.7,6.1-1.7,7.8c-0.9,1.8-3,3.4-6.3,4.9l-2-2.4c2.8-1.1,4.6-2.3,5.5-3.6c1-1.2,1.5-3.5,1.6-6.7h-4.7L306.3,252.6
		L306.3,252.6z M313.6,236.2l2.9,0.3c0.5,0,0.8,0.2,0.8,0.5c0,0.2-0.2,0.5-0.6,0.8v2.2h7.5v8h-2.8v-5.2h-12.3v5.2h-2.8v-8h7.4V236.2
		z M310.5,246.6h9.5v2.8h-9.5V246.6z"/>
	<polygon id="XMLID_204_" class="st0" points="79.6,271.3 78.9,270.6 75.7,274.3 75.2,273.9 78.4,270.2 77.7,269.6 78.4,268.9 
		80.3,270.5 	"/>
	<path id="XMLID_205_" class="st0" d="M83.2,272.8l-2.2,2.9c-0.9,1.2-1.9,1.5-2.5,1c-0.6-0.4-0.6-1.4,0.3-2.6l2.2-2.9l0.5,0.4
		l-1.9,2.6c-0.6,0.8-1.1,1.5-0.6,1.9c0.5,0.4,1.1-0.3,1.7-1.1l1.9-2.5L83.2,272.8"/>
	<polygon id="XMLID_206_" class="st0" points="86.7,275 83.5,279.9 82.7,279.4 84.3,274.7 84.3,274.7 81.7,278.8 81.2,278.4 
		84.3,273.5 85.2,274 83.7,278.5 83.7,278.5 86.1,274.7 	"/>
	<path id="XMLID_207_" class="st0" d="M87.3,279.6l0.5-0.9l1.1,0.6l-1.4,2.6l-0.7-0.1c-0.1,0-0.3-0.1-0.6-0.3
		c-0.5-0.3-0.9-1.3,0.2-3.4c1.1-2,2.2-2.3,2.7-2c0.8,0.4,1,1.1,0.4,2.4l-0.6-0.3c0.4-0.6,0.3-1-0.1-1.2c-0.5-0.3-1.2,0.3-1.8,1.5
		c-0.6,1.1-0.8,2-0.3,2.3l0.6,0.2l0.6-1.1L87.3,279.6"/>
</g>
</svg>
