<?xml version="1.0" encoding="utf-8"?>
<!-- Generator: Adobe Illustrator 21.1.0, SVG Export Plug-In . SVG Version: 6.00 Build 0)  -->
<svg version="1.1" id="Layer_3" xmlns="http://www.w3.org/2000/svg" xmlns:xlink="http://www.w3.org/1999/xlink" x="0px" y="0px"
	 viewBox="0 0 335 50" style="enable-background:new 0 0 335 50;" xml:space="preserve">
<style type="text/css">
	.st0{fill-rule:evenodd;clip-rule:evenodd;fill:#782328;}
</style>
<path class="st0" d="M20.3099365,13.4824696c-3.9990273-1.4747057-5.517148-6.6773062-9.0748577-9.0739479
	c2.8399038-3.8234892,7.2969112,0.9150729,8.9306183,3.168365C20.2612915,9.4981613,19.9735985,11.8018341,20.3099365,13.4824696z
	 M20.1656971,15.6435986c-0.8603497-1.0810204-2.3766499-1.7153454-3.7453632-3.1682615
	c-1.843977-1.9587355-3.004941-4.561286-5.0409956-5.4737334C9.492774,6.1551666,7.1700397,6.9755549,6.7702961,8.5857344
	c3.4942007,2.1916027,5.365921,5.9690723,8.497736,8.7863588c1.4547348,1.3086357,2.4427853,2.2376423,4.897665,1.8726292
	C20.3942223,18.3096581,20.3942223,16.577858,20.1656971,15.6435986z M36.8745079,10.8573017
	c1.521656-1.1922636,3.3786354-2.2289801,3.8888168-3.7444539c0.623848-1.8570848-0.3676376-3.3865135-1.7285767-3.8896236
	c-0.682991,2.8859234-5.3276749,2.8598747-6.0488281,5.7613444c-0.3624077,1.4529982,0.264061,3.3648052,0,5.4737339
	C34.0607796,13.6250134,35.2234573,12.1495018,36.8745079,10.8573017z M40.3312721,15.3220844
	c2.0594978-1.7162561,4.6648788-2.8128214,5.3286858-5.0409746c0.6127434-2.053441-0.2424583-3.6862168-1.727562-4.1772137
	c-2.9154892,4.3823156-8.2310677,6.3653841-10.946476,10.9466829c0,0.7689934,0,1.5362701,0,2.3053894
	c1.2476692,0,2.4955635,0,3.7444534,0C37.873867,18.3531761,38.6612396,16.71422,40.3312721,15.3220844z M44.7962799,19.3559685
	c2.3340416-1.3791122,7.5228348-6.6181602,3.1690674-8.7871656c-2.3566589,3.6445179-7.1047096,4.8992577-9.2190971,8.7871656
	C40.7633247,19.3559685,42.7802162,19.3559685,44.7962799,19.3559685z M3.7444541,13.3382301
	c2.6347811,0.6708775,3.3082836,5.3042526,5.7622538,5.9064922c1.5190096,0.3718777,3.4498978-0.2728691,5.6170845,0
	C12.4795427,17.6596813,8.3891382,7.8740673,3.7444541,13.3382301z M8.6429262,31.4095936
	c-2.1846561,1.3696232-7.6435671,6.3175449-3.1700811,8.9306202c2.2202764-3.7826195,7.1517439-4.853241,9.0748587-8.9306202
	C12.5794792,31.4095936,10.6111507,31.4095936,8.6429262,31.4095936z M16.5645733,31.4095936
	c-0.8115816,0.8039341-1.50245,2.0891666-2.5921526,3.1692753c-2.3619108,2.3358612-5.8186722,3.7505112-6.3383427,6.1923676
	c-0.3180833,1.498024,0.1893697,3.4914932,1.7283697,3.8904305c3.0866022-4.1641922,8.1884594-6.312294,10.9474888-10.8031464
	c0-0.8168335,0-1.6328812,0-2.4489269C19.0611515,31.4095936,17.8133793,31.4095936,16.5645733,31.4095936z M35.3094597,31.5529442
	c-0.815033,0-1.6318665,0-2.4479141,0c0,1.2010498,0,2.40028,0,3.6011047
	c1.0498238,1.2470894,2.8658295,2.1446915,4.3214531,3.8896217c1.3433876,1.6118965,2.4010887,3.5603371,3.8878059,4.4658165
	c1.9482346,1.1852989,4.5423279,0.8105888,5.1853371-1.1532097C42.0285683,39.3356018,39.849968,34.2633286,35.3094597,31.5529442z
	 M46.40131,39.3313637c1.3286285,0.01474,2.3540344-0.7665749,2.8805733-1.8727341
	c-2.7545853-0.5935555-3.0204887-5.2224884-5.7621536-5.9056854c-1.517395-0.3771267-3.8322754,0.1556511-5.7613449,0.1443424
	C40.8996048,32.9581032,42.5143127,39.2895851,46.40131,39.3313637z M12.53162,44.3731651
	c-0.1650372,1.5632324,0.5509701,2.6451607,1.7284937,3.3134117c1.3642683-2.4773941,4.356164-3.3255234,6.0498228-5.4746437
	c-0.0955944-1.9203873,0.1911888-4.224144-0.1442394-5.9046745C18.9543514,39.3321724,12.9096556,40.7859764,12.53162,44.3731651z
	 M32.8615456,43.2209892c1.4304047,2.1749611,6.8580132,7.4410477,8.9297943,3.02491
	c-3.6671143-2.3342476-4.9586105-7.0449638-8.9297943-9.0749626C32.8615456,39.188015,32.8615456,41.2049026,32.8615456,43.2209892z
	 M52.8629913,19.8860168H31.9768639V0.0088397H21.1737385v19.8771763H0v10.5147495h21.1737385v19.590395h10.8031254v-19.590395
	h20.8861275V19.8860168z"/>
<path d="M72.176651,32.5419083c-0.5930786-0.4460869-1.3386459-0.6697826-2.2372284-0.6697826
	c-1.0334702,0-1.8972321,0.2479687-2.5907059,0.7426243c-0.6938019,0.4947128-1.1814499,1.1593895-1.4626694,1.9928513
	c-0.2814865,0.8347092-0.4221344,1.6949425-0.4221344,2.5795212c0,1.142765,0.1668243,2.1397781,0.4998169,2.9923553
	c0.3333206,0.8513298,0.8513336,1.4891739,1.5543594,1.9097366c0.7033615,0.4218025,1.464241,0.6327362,2.2835693,0.6327362
	c0.9961014,0,1.8397751-0.2876358,2.5309525-0.8615379c0.6909256-0.5739708,1.1584091-1.4265442,1.403244-2.5565491
	l1.7786484,0.4487038c-0.3732452,1.4610329-1.0436783,2.5744133-2.0128784,3.3400764
	c-0.9686127,0.7669678-2.1532669,1.1504211-3.5529709,1.1504211c-1.4491882,0-2.6274261-0.2939873-3.5353088-0.8845139
	c-0.9078751-0.5892792-1.598793-1.4431648-2.0723648-2.5604057c-0.4739037-1.1184196-0.7110176-2.3187141-0.7110176-3.6008148
	c0-1.3997078,0.2677422-2.6191788,0.8027077-3.6609688c0.5346298-1.0417709,1.2961731-1.8329582,2.2829742-2.3736801
	c0.9874649-0.54072,2.0740128-0.811409,3.2604904-0.811409c1.3447342,0,2.4757233,0.3426151,3.3925018,1.0261402
	c0.9171677,0.6851635,1.5559921,1.6463795,1.9167404,2.8863316l-1.7514877,0.412838
	C73.2219696,33.6987419,72.7694702,32.9880562,72.176651,32.5419083L72.176651,32.5419083z M83.4291763,44.0142632
	c-0.1709442-0.3425484-0.2812271-0.7426949-0.3304443-1.2002945c-0.6113358,0.5189934-1.1993103,0.8858223-1.7649612,1.0993118
	c-0.5652695,0.2134857-1.1724854,0.3208199-1.8205338,0.3208199c-1.0699234,0-1.8918076-0.2607422-2.466362-0.7835312
	c-0.5746231-0.5215416-0.8618698-1.1887741-0.8618698-2.0017509c0-0.4767799,0.1079941-0.9114113,0.3252716-1.306385
	c0.2170181-0.3937263,0.5013885-0.7094421,0.8529663-0.948452c0.3515167-0.2377701,0.747406-0.4180107,1.1871414-0.5407219
	c0.324028-0.0856705,0.8133011-0.1674805,1.4677734-0.2466698c1.3322296-0.1585121,2.3133469-0.3490257,2.9434662-0.5688629
	c0.0057602-0.2262497,0.0092926-0.369381,0.0092926-0.4307709c0-0.6710892-0.1559601-1.1453171-0.4681396-1.4201279
	c-0.4215393-0.3719978-1.0481949-0.5585899-1.8796997-0.5585899c-0.7765198,0-1.3498383,0.1354752-1.7195435,0.4077339
	c-0.3697739,0.2722588-0.64328,0.7528992-0.8203735,1.4431686l-1.6143799-0.2198372
	c0.1469955-0.6902657,0.3882294-1.247612,0.724762-1.6719666c0.3361359-0.4244232,0.8218765-0.7516556,1.4578247-0.9817009
	c0.6359482-0.2288055,1.372551-0.342617,2.2101364-0.342617c0.8311768,0,1.5067139,0.0971909,2.0266266,0.2927361
	c0.5196457,0.1955643,0.9015274,0.4409904,1.1459732,0.737587c0.2447662,0.2965469,0.4157791,0.671032,0.5138855,1.1222878
	c0.0549774,0.2812233,0.0824585,0.7887001,0.0824585,1.5211067v2.1998672c0,1.5326309,0.0351486,2.5028801,0.1054382,2.9093704
	c0.0702896,0.4064255,0.2092972,0.7963562,0.4170303,1.1682892H83.4291763L83.4291763,44.0142632z M82.9616241,39.1300392
	c-0.5991669,0.244175-1.4977493,0.4524994-2.6964722,0.6225281c-0.678421,0.0984344-1.1584091,0.2083817-1.4393005,0.3297806
	c-0.2815552,0.1227188-0.4985123,0.301651-0.6509399,0.5368652c-0.1530762,0.235218-0.229454,0.4959564-0.229454,0.783596
	c0,0.4397354,0.1664963,0.8065567,0.4998169,1.099308c0.333252,0.2926788,0.8203125,0.4396706,1.4626007,0.4396706
	c0.6356201,0,1.2016068-0.1393356,1.6962509-0.4166985c0.4950409-0.2773628,0.8589935-0.6582642,1.0913239-1.1414566
	c0.1773605-0.3720016,0.2661743-0.9216232,0.2661743-1.6489983V39.1300392L82.9616241,39.1300392z M91.1422119,36.124855
	c-0.4039459-0.2390137-0.8075562-0.3579292-1.2108383-0.3579292c-0.3604813,0-0.6845016,0.1087074-0.971817,0.3259926
	c-0.2873077,0.2160378-0.492157,0.5176811-0.6142197,0.9024429c-0.1837082,0.586731-0.2754669,1.2271271-0.2754669,1.9238091
	v5.0950928h-1.650238v-9.7313423h1.4853821v1.4751053c0.3789978-0.6902657,0.7288818-1.1453171,1.0497665-1.3652191
	c0.320816-0.2198372,0.6739731-0.3297882,1.0593185-0.3297882c0.556366,0,1.1216965,0.176445,1.6962509,0.5305138
	L91.1422119,36.124855L91.1422119,36.124855z M91.9494247,44.0142632v-9.7313423h1.6508331v9.7313423H91.9494247
	L91.9494247,44.0142632z M91.9494247,30.5807304h1.6508331v1.8973007h-1.6508331V30.5807304L91.9494247,30.5807304z
	 M97.3928299,42.1633644c0.0578537,0.1342316,0.1527481,0.2415657,0.2841034,0.3208199
	c0.1316833,0.0792503,0.3195724,0.1189156,0.5640182,0.1189156c0.1834488,0,0.4247513-0.0217285,0.724823-0.063942
	l0.2380295,1.4559288c-0.4646072,0.0984344-0.8803864,0.1469955-1.2468872,0.1469955
	c-0.5992279,0-1.0638428-0.0945702-1.3939514-0.2837791c-0.3304443-0.1891403-0.5627747-0.438427-0.6970062-0.7464828
	c-0.1344986-0.3093681-0.2016449-0.957428-0.2016449-1.9467812v-5.6000175h-1.2108307v-1.2821007h1.2108307v-2.4107952
	l1.6412735-0.9893589v3.4001541h1.6601868v1.2821007h-1.6601868v5.6907845
	C97.3055878,41.726181,97.3343811,42.0291328,97.3928299,42.1633644L97.3928299,42.1633644z M106.5129013,44.0142632
	c-0.1706238-0.3425484-0.280899-0.7426949-0.3297882-1.2002945c-0.6113358,0.5189934-1.1999664,0.8858223-1.7652969,1.0993118
	c-0.5652618,0.2134857-1.1724777,0.3208199-1.8205338,0.3208199c-1.0695953,0-1.8917999-0.2607422-2.466423-0.7835312
	c-0.5745544-0.5215416-0.8618698-1.1887741-0.8618698-2.0017509c0-0.4767799,0.1080551-0.9114113,0.3253403-1.306385
	c0.2166901-0.3937263,0.5013809-0.7094421,0.8528976-0.948452c0.3515167-0.2377701,0.747467-0.4180107,1.1872025-0.5407219
	c0.324028-0.0856705,0.8133087-0.1674805,1.467453-0.2466698c1.3328857-0.1585121,2.3139343-0.3490257,2.9437943-0.5688629
	c0.0057526-0.2262497,0.0089645-0.369381,0.0089645-0.4307709c0-0.6710892-0.1559601-1.1453171-0.4678116-1.4201279
	c-0.4215469-0.3719978-1.0481949-0.5585899-1.8796997-0.5585899c-0.7765274,0-1.3498383,0.1354752-1.7195511,0.4077339
	c-0.3700943,0.2722588-0.6433411,0.7528992-0.8203735,1.4431686l-1.6137772-0.2198372
	c0.1463318-0.6902657,0.3876343-1.247612,0.7241592-1.6719666c0.3361359-0.4244232,0.8218842-0.7516556,1.4578323-0.9817009
	c0.6359406-0.2288055,1.3722153-0.342617,2.2100677-0.342617c0.8315659,0,1.5071106,0.0971909,2.0266876,0.2927361
	c0.5196457,0.1955643,0.9015274,0.4409904,1.1463013,0.737587c0.2444458,0.2965469,0.4154587,0.671032,0.5135574,1.1222878
	c0.0549164,0.2812233,0.0823975,0.7887001,0.0823975,1.5211067v2.1998672c0,1.5326309,0.0351486,2.5028801,0.1051788,2.9093704
	c0.0706177,0.4064255,0.2096252,0.7963562,0.4176788,1.1682892H106.5129013L106.5129013,44.0142632z M106.0456772,39.1300392
	c-0.5991669,0.244175-1.4980774,0.4524994-2.6958237,0.6225281c-0.6790695,0.0984344-1.1590576,0.2083817-1.4399567,0.3297806
	c-0.2812271,0.1227188-0.4985046,0.301651-0.6509323,0.5368652c-0.1530838,0.235218-0.229454,0.4959564-0.229454,0.783596
	c0,0.4397354,0.1664963,0.8065567,0.4998169,1.099308c0.333252,0.2926788,0.8209,0.4396706,1.4626007,0.4396706
	c0.6359482,0,1.2012787-0.1393356,1.6962509-0.4166985c0.4956284-0.2773628,0.8589859-0.6582642,1.0913239-1.1414566
	c0.1773605-0.3720016,0.2661743-0.9216232,0.2661743-1.6489983V39.1300392L106.0456772,39.1300392z M114.3313599,35.8398323
	c-0.3515091-0.2799797-0.8481216-0.4205666-1.4901505-0.4205666c-0.7583313,0-1.2989883,0.1252708-1.6230164,0.3758011
	c-0.3240891,0.2505264-0.4864044,0.5432739-0.4864044,0.879467c0,0.2134285,0.0677414,0.406498,0.201973,0.5777702
	c0.134819,0.1763802,0.3451004,0.3233757,0.6330719,0.4397392c0.1645279,0.0600777,0.6509247,0.2006607,1.4578171,0.4204941
	c1.1677017,0.3119202,1.982254,0.5675545,2.443718,0.765728c0.4617996,0.1981049,0.8238449,0.4869881,1.0865479,0.8653374
	c0.2632904,0.3796539,0.3946457,0.8500214,0.3946457,1.4112282c0,0.5496216-0.160408,1.0673065-0.4816208,1.553051
	c-0.3211441,0.4857445-0.7841873,0.8615417-1.3891068,1.127449c-0.6049271,0.2658463-1.2897644,0.3987694-2.054184,0.3987694
	c-1.2654724,0-2.2298965-0.2619858-2.8930054-0.7873917c-0.6634369-0.525341-1.0868073-1.3050728-1.270256-2.3366432
	l1.632637-0.2569466c0.0916901,0.6532249,0.3467331,1.1542854,0.7653351,1.5032463
	c0.418663,0.3477211,1.0044098,0.5215454,1.7559967,0.5215454c0.7583389,0,1.3207855-0.1546478,1.6873474-0.4627075
	c0.3668365-0.3081245,0.5502777-0.6698532,0.5502777-1.0865479c0-0.3719978-0.1620483-0.6659851-0.4860687-0.8794708
	c-0.2259216-0.1456871-0.7887039-0.3323402-1.6872864-0.5585976c-1.2105026-0.3054962-2.0494003-0.5700989-2.5172119-0.7924881
	c-0.4675522-0.2224503-0.8222046-0.5317535-1.0638351-0.9254875c-0.2412415-0.3936539-0.3620529-0.8295326-0.3620529-1.3050652
	c0-0.4346352,0.09935-0.8360176,0.2978516-1.2053986c0.1990891-0.3694496,0.4694519-0.6775055,0.8116684-0.9216232
	c0.2569427-0.1892052,0.6065598-0.3489609,1.0497665-0.4806404c0.4435272-0.1316795,0.9184113-0.1968651,1.4262161-0.1968651
	c0.7644119,0,1.4348526,0.109951,2.0129395,0.3297882c0.5774384,0.219902,1.0040894,0.5177498,1.2792282,0.8935432
	c0.2751389,0.3757973,0.4646072,0.8781662,0.5681381,1.5070419l-1.6137848,0.2198372
	C114.8953857,36.5121689,114.6828766,36.1210594,114.3313599,35.8398323L114.3313599,35.8398323z M123.1407547,44.0142632
	V30.5807304h1.7790451v13.4335327H123.1407547L123.1407547,44.0142632z M133.357254,44.0142632v-5.9195938
	c0-0.6723976-0.06427-1.1747093-0.1926727-1.5070419c-0.128479-0.3336449-0.3563538-0.599556-0.6832581-0.7976646
	c-0.3269043-0.1981049-0.7106934-0.2978477-1.1507568-0.2978477c-0.7030182,0-1.3101807,0.2236977-1.8205261,0.6685371
	c-0.5103607,0.4461517-0.7656708,1.2923126-0.7656708,2.5386162v5.3149948h-1.6505661v-9.7313423h1.4856491v1.3830795
	c0.7151947-1.0686722,1.7480164-1.6029816,3.0990906-1.6029816c0.5873871,0,1.1268005,0.104847,1.6189575,0.3157806
	c0.4917755,0.2108727,0.8602448,0.4869919,1.105072,0.8295403c0.2444458,0.3426132,0.41539,0.7477951,0.5134888,1.2182236
	c0.0607452,0.3055077,0.0917664,0.8398132,0.0917664,1.6041679v5.983532H133.357254L133.357254,44.0142632z M141.5968781,35.8398323
	c-0.3515167-0.2799797-0.8478088-0.4205666-1.490097-0.4205666c-0.7580109,0-1.2987213,0.1252708-1.622757,0.3758011
	c-0.3240204,0.2505264-0.4863892,0.5432739-0.4863892,0.879467c0,0.2134285,0.0677338,0.406498,0.2019653,0.5777702
	c0.1342316,0.1763802,0.3451691,0.3233757,0.6324158,0.4397392c0.1652527,0.0600777,0.6515808,0.2006607,1.4584808,0.4204941
	c1.1673737,0.3119202,1.9819794,0.5675545,2.4437103,0.765728c0.4614563,0.1981049,0.8238373,0.4869881,1.0865479,0.8653374
	c0.26297,0.3796539,0.3943176,0.8500214,0.3943176,1.4112282c0,0.5496216-0.16008,1.0673065-0.4812317,1.553051
	c-0.3212128,0.4857445-0.784256,0.8615417-1.3894958,1.127449c-0.6052551,0.2658463-1.2900848,0.3987694-2.0538483,0.3987694
	c-1.2657471,0-2.2302399-0.2619858-2.8936005-0.7873917c-0.6627808-0.525341-1.0865479-1.3050728-1.2700043-2.3366432
	l1.6327057-0.2569466c0.0916901,0.6532249,0.3466644,1.1542854,0.7653351,1.5032463
	c0.4185944,0.3477211,1.0044098,0.5215454,1.7563324,0.5215454c0.7579956,0,1.3204498-0.1546478,1.6869507-0.4627075
	c0.367218-0.3081245,0.5505981-0.6698532,0.5505981-1.0865479c0-0.3719978-0.1623077-0.6659851-0.4863281-0.8794708
	c-0.2259827-0.1456871-0.7883759-0.3323402-1.687027-0.5585976c-1.210495-0.3054962-2.0493317-0.5700989-2.5172119-0.7924881
	c-0.4674835-0.2224503-0.822525-0.5317535-1.0638275-0.9254875c-0.2415619-0.3936539-0.3620605-0.8295326-0.3620605-1.3050652
	c0-0.4346352,0.099411-0.8360176,0.2978516-1.2053986c0.1984406-0.3694496,0.4694519-0.6775055,0.811676-0.9216232
	c0.2569427-0.1892052,0.6065521-0.3489609,1.0497589-0.4806404c0.4432678-0.1316795,0.9184875-0.1968651,1.4259491-0.1968651
	c0.7643585,0,1.4351196,0.109951,2.0132141,0.3297882c0.5774384,0.219902,1.0037537,0.5177498,1.2789001,0.8935432
	c0.2754669,0.3757973,0.4646759,0.8781662,0.5685272,1.5070419l-1.6137848,0.2198372
	C142.160965,36.5121689,141.9483795,36.1210594,141.5968781,35.8398323L141.5968781,35.8398323z M147.4576874,42.1633644
	c0.0578613,0.1342316,0.1524353,0.2415657,0.2841034,0.3208199c0.1310272,0.0792503,0.3195801,0.1189156,0.5637054,0.1189156
	c0.1837769,0,0.4250031-0.0217285,0.7250824-0.063942l0.2380981,1.4559288
	c-0.4646759,0.0984344-0.8804016,0.1469955-1.2469635,0.1469955c-0.5991669,0-1.0638428-0.0945702-1.3939514-0.2837791
	c-0.330368-0.1891403-0.5627136-0.438427-0.6969452-0.7464828c-0.134552-0.3093681-0.2016296-0.957428-0.2016296-1.9467812
	v-5.6000175h-1.2108307v-1.2821007h1.2108307v-2.4107952l1.6412659-0.9893589v3.4001541h1.6601257v1.2821007h-1.6601257v5.6907845
	C147.3704529,41.726181,147.3992462,42.0291328,147.4576874,42.1633644L147.4576874,42.1633644z M149.9020691,44.0142632v-9.7313423
	h1.6504974v9.7313423H149.9020691L149.9020691,44.0142632z M149.9020691,30.5807304h1.6504974v1.8973007h-1.6504974V30.5807304
	L149.9020691,30.5807304z M155.3448792,42.1633644c0.0587769,0.1342316,0.1534119,0.2415657,0.2846985,0.3208199
	c0.1313477,0.0792503,0.3195648,0.1189156,0.5640869,0.1189156c0.1833801,0,0.4246826-0.0217285,0.7240906-0.063942
	l0.2386932,1.4559288c-0.4646149,0.0984344-0.8804016,0.1469955-1.2472229,0.1469955
	c-0.5994873,0-1.0638428-0.0945702-1.3936157-0.2837791c-0.3304443-0.1891403-0.5627899-0.438427-0.6969452-0.7464828
	c-0.1348877-0.3093681-0.2019806-0.957428-0.2019806-1.9467812v-5.6000175h-1.210556v-1.2821007h1.210556v-2.4107952
	l1.6412811-0.9893589v3.4001541h1.65979v1.2821007h-1.65979v5.6907845
	C155.2579651,41.726181,155.2870178,42.0291328,155.3448792,42.1633644L155.3448792,42.1633644z M164.1629181,44.0142632v-1.4290962
	c-0.7580109,1.0993118-1.788269,1.6489334-3.0898743,1.6489334c-0.5752106,0-1.1117554-0.1098862-1.6096039-0.3297882
	c-0.4982452-0.2198334-0.8679504-0.4959602-1.1095886-0.8295364c-0.2415619-0.3323402-0.4112549-0.740139-0.5090332-1.2233315
	c-0.0674133-0.3233795-0.1006622-0.8372612-0.1006622-1.5389786v-6.0295448h1.650238v5.3968048
	c0,0.8615417,0.033844,1.4418564,0.1009827,1.7409477c0.1038666,0.4333191,0.3240356,0.7746277,0.660553,1.0226059
	c0.3361359,0.2467346,0.7519226,0.3706894,1.2469025,0.3706894c0.4953613,0,0.9599609-0.1265068,1.3939362-0.3808975
	c0.4343109-0.2530823,0.7410583-0.5982475,0.9213104-1.0353699c0.1805573-0.4359398,0.2710114-1.0699272,0.2710114-1.9007683
	v-5.2140121h1.6505585v9.7313423H164.1629181L164.1629181,44.0142632z M169.5054016,42.1633644
	c0.0581818,0.1342316,0.1527405,0.2415657,0.2844238,0.3208199c0.1313477,0.0792503,0.3192444,0.1189156,0.5636902,0.1189156
	c0.1834564,0,0.4246826-0.0217285,0.724762-0.063942l0.2380981,1.4559288
	c-0.4646759,0.0984344-0.8803864,0.1469955-1.2469635,0.1469955c-0.5991669,0-1.0638275-0.0945702-1.3939514-0.2837791
	c-0.3297882-0.1891403-0.5627136-0.438427-0.6969452-0.7464828c-0.134552-0.3093681-0.2016296-0.957428-0.2016296-1.9467812
	v-5.6000175h-1.2108307v-1.2821007h1.2108307v-2.4107952l1.6412659-0.9893589v3.4001541h1.6601257v1.2821007h-1.6601257v5.6907845
	C169.4181519,41.726181,169.4468842,42.0291328,169.5054016,42.1633644L169.5054016,42.1633644z M180.3590851,39.5697746h-7.263092
	c0.0614014,1.0699234,0.3636932,1.8880081,0.9078827,2.4554977c0.5442505,0.5688629,1.2230072,0.8526382,2.0359802,0.8526382
	c0.6052551,0,1.1216278-0.1585121,1.5498505-0.4767838c0.4282227-0.3170166,0.7669678-0.8244934,1.0175018-1.5211716
	l1.7058716,0.2109261c-0.2691193,0.9957809-0.766983,1.7690964-1.4949341,2.318779
	c-0.7273102,0.5496292-1.656662,0.82444-2.7879028,0.82444c-1.423996,0-2.5536041-0.438427-3.3879852-1.3152924
	c-0.8343811-0.8769112-1.2517395-2.1052818-1.2517395-3.6877861c0-1.637413,0.4221344-2.9079933,1.2658081-3.8117561
	c0.8436127-0.9049911,1.9378204-1.3562469,3.282547-1.3562469c1.3025208,0,2.3660278,0.4422913,3.1911926,1.3281059
	c0.8250732,0.8858299,1.2379913,2.1321297,1.2379913,3.7389145
	C180.3680573,39.2272263,180.3648376,39.3742142,180.3590851,39.5697746L180.3590851,39.5697746z M178.0019531,36.3715897
	c-0.5253448-0.6352921-1.2072906-0.9523239-2.0445557-0.9523239c-0.7586517,0-1.3958435,0.2530899-1.9119568,0.7605629
	c-0.5167084,0.5074768-0.8024445,1.1849785-0.8573608,2.0336952h5.4376526
	C178.552887,37.3954391,178.344574,36.781868,178.0019531,36.3715897L178.0019531,36.3715897z M194.0466156,41.9664993
	c-0.3757935,0.7171021-0.9228668,1.2744446-1.6412659,1.6719704c-0.7183533,0.3962784-1.502594,0.5956306-2.3519592,0.5956306
	c-1.3639221,0-2.4657745-0.4371185-3.3055878-1.3101807c-0.8411255-0.8743019-1.2616272-2.1321297-1.2616272-3.7759476
	c0-1.8010941,0.5010681-3.1368637,1.5045013-4.0035095c0.8372498-0.7209625,1.8579559-1.0814438,3.0627136-1.0814438
	c1.3383179,0,2.4325104,0.4384956,3.282547,1.3140411c0.8500214,0.8769226,1.2750854,2.088726,1.2750854,3.6341286
	C194.6110229,40.2638397,194.4230652,41.2480927,194.0466156,41.9664993L194.0466156,41.9664993z M192.0934906,36.3575172
	c-0.5471344-0.6186676-1.2277832-0.9292793-2.0401001-0.9292793c-0.8251648,0-1.5102539,0.3080597-2.054184,0.9254189
	c-0.543869,0.617424-0.8161926,1.5480042-0.8161926,2.7943153c0,1.2462997,0.2723236,2.1793747,0.8161926,2.7993507
	c0.5439301,0.6199799,1.2290192,0.9305878,2.054184,0.9305878c0.8187256,0,1.5006866-0.3119164,2.0451965-0.9344482
	c0.5432739-0.6237717,0.8155365-1.5734711,0.8155365-2.8504677
	C192.9141235,37.8901482,192.640564,36.9787369,192.0934906,36.3575172L192.0934906,36.3575172z M200.1778107,31.9551697
	c-0.3425598-0.0613155-0.6665802-0.0920105-0.9720917-0.0920105c-0.501709,0-0.855835,0.1073971-1.0635071,0.3208199
	c-0.2083893,0.2147942-0.3119202,0.6135635-0.3119202,1.2002945v0.8986473h1.8982086v1.2821007h-1.8982086v8.4492416h-1.6412811
	v-8.4492416h-1.4584808v-1.2821007h1.4584808v-1.0354309c0-0.6544685,0.0575256-1.1389046,0.1738281-1.4571743
	c0.1591644-0.4282169,0.4384308-0.7746277,0.8391571-1.0405369c0.4001465-0.2655182,0.9612885-0.3985062,1.6828308-0.3985062
	c0.4646759,0,0.9779053,0.0553036,1.5402985,0.1652546L200.1778107,31.9551697L200.1778107,31.9551697z M213.7605591,44.0142632
	v-6.331192h-6.9882202v6.331192h-1.7787018V30.5807304h1.7787018v5.5160484h6.9882202v-5.5160484h1.7787018v13.4335327H213.7605591
	L213.7605591,44.0142632z M217.5480194,44.0142632v-9.7313423h1.6508942v9.7313423H217.5480194L217.5480194,44.0142632z
	 M217.5480194,30.5807304h1.6508942v1.8973007h-1.6508942V30.5807304L217.5480194,30.5807304z M228.4477234,45.9150352
	c-0.3087158,0.6327362-0.7982635,1.1325531-1.467453,1.499382c-0.6697845,0.3655853-1.4929657,0.5496826-2.470871,0.5496826
	c-1.1618805,0-2.1001282-0.262043-2.8153229-0.7835884c-0.7158661-0.522789-1.0609589-1.3089333-1.0366821-2.3596802
	l1.6048889,0.2377663c0.0670776,0.4947128,0.2536621,0.8551941,0.5591736,1.0814438
	c0.4096985,0.3055038,0.9689331,0.4588394,1.6783752,0.4588394c0.7637787,0,1.3542938-0.1533356,1.7697601-0.4588394
	c0.4160309-0.3055077,0.6966705-0.7324829,0.8436737-1.2834129c0.0856018-0.3362007,0.1252594-1.0404701,0.1194916-2.1155014
	c-0.7216034,0.8487816-1.6201935,1.2731361-2.6958771,1.2731361c-1.338974,0-2.3755798-0.4831924-3.109314-1.4482689
	c-0.7331238-0.9650803-1.0999603-2.1219177-1.0999603-3.4729996c0-0.9280357,0.1680756-1.7844696,0.5036163-2.5693092
	c0.336853-0.7848358,0.8238373-1.3920517,1.4629974-1.8189583c0.6390839-0.4282188,1.3894348-0.6417084,2.2516327-0.6417084
	c1.1491699,0,2.0963135,0.4640198,2.842865,1.3920555v-1.1721535h1.5217743v8.4121971
	C228.9104919,44.2098198,228.7557831,45.2836037,228.4477234,45.9150352L228.4477234,45.9150352z M226.5769958,36.3357887
	c-0.5292053-0.6045952-1.1663971-0.9075508-1.9122314-0.9075508c-0.7337189,0-1.3569031,0.2977829-1.8707275,0.8934822
	c-0.5132294,0.5956955-0.7701721,1.4789658-0.7701721,2.652359c0,1.2769966,0.2537231,2.208828,0.7612152,2.7955589
	c0.5074615,0.5867271,1.1434021,0.8794708,1.9071198,0.8794708c0.7579956,0,1.3939362-0.2914314,1.9071655-0.875618
	c0.5139008-0.5828629,0.7707672-1.4981346,0.7707672-2.7444382
	C227.3701324,37.8377266,227.1055298,36.9403877,226.5769958,36.3357887L226.5769958,36.3357887z M236.9347229,44.0142632
	v-6.1675758c0-0.8244934-0.1783447-1.4239845-0.5362091-1.7997856c-0.3572693-0.3757896-0.8634949-0.5636864-1.5173187-0.5636864
	c-0.4895325,0-0.9491119,0.126503-1.3805237,0.3809013c-0.4307709,0.2530823-0.7375183,0.5956306-0.9209747,1.030262
	c-0.1834412,0.4333153-0.2754669,1.0328064-0.2754669,1.7959175v5.323967h-1.650238V30.5807304h1.650238v4.8193665
	c0.7701874-0.8909264,1.7422638-1.3370781,2.9163818-1.3370781c0.7208862,0,1.3478699,0.1418915,1.8796387,0.4256668
	c0.5317383,0.2837791,0.9127045,0.6775055,1.14151,1.1773148c0.2294617,0.5010681,0.3444519,1.2283783,0.3444519,2.180687v6.1675758
	H236.9347229L236.9347229,44.0142632z M248.7655945,39.5697746h-7.2630157
	c0.0613251,1.0699234,0.3636932,1.8880081,0.907547,2.4554977c0.5445251,0.5688629,1.2226715,0.8526382,2.0362396,0.8526382
	c0.6046753,0,1.1217041-0.1585121,1.5492554-0.4767838c0.4282227-0.3170166,0.7676392-0.8244934,1.018158-1.5211716
	l1.7058105,0.2109261c-0.2697144,0.9957809-0.7669067,1.7690964-1.494873,2.318779
	c-0.7280273,0.5496292-1.6566467,0.82444-2.7878876,0.82444c-1.4246521,0-2.5540009-0.438427-3.3880615-1.3152924
	c-0.8347015-0.8769112-1.2514038-2.1052818-1.2514038-3.6877861c0-1.637413,0.4212189-2.9079933,1.2654724-3.8117561
	c0.8436737-0.9049911,1.9378815-1.3562469,3.282547-1.3562469c1.3019409,0,2.3661041,0.4422913,3.1911926,1.3281059
	c0.8251495,0.8858299,1.2379913,2.1321297,1.2379913,3.7389145
	C248.7745667,39.2272263,248.7713623,39.3742142,248.7655945,39.5697746L248.7655945,39.5697746z M246.4085388,36.3715897
	c-0.526001-0.6352921-1.2072906-0.9523239-2.0452118-0.9523239c-0.7580109,0-1.3952637,0.2530899-1.9116364,0.7605629
	c-0.516449,0.5074768-0.802124,1.1849785-0.8571014,2.0336952h5.4377136
	C246.9588013,37.3954391,246.7510834,36.781868,246.4085388,36.3715897L246.4085388,36.3715897z M254.7453461,36.124855
	c-0.4039459-0.2390137-0.8072357-0.3579292-1.2111664-0.3579292c-0.3604889,0-0.6845093,0.1087074-0.9714813,0.3259926
	c-0.2875824,0.2160378-0.4921112,0.5176811-0.6142273,0.9024429c-0.1840363,0.586731-0.2754669,1.2271271-0.2754669,1.9238091
	v5.0950928h-1.6508331v-9.7313423h1.485321v1.4751053c0.3796539-0.6902657,0.7292786-1.1453171,1.0507507-1.3652191
	c0.3201599-0.2198372,0.6736298-0.3297882,1.0589905-0.3297882c0.5560303,0,1.1216888,0.176445,1.6962433,0.5305138
	L254.7453461,36.124855L254.7453461,36.124855z M270.2895203,42.4292107v1.5850525H260.257782V30.5807304h9.7198792v1.5853806
	h-7.9411621v4.1147041h7.4375v1.576088h-7.4375v4.5723076H270.2895203L270.2895203,42.4292107z M278.1035461,44.0142632v-1.2283707
	c-0.6180115,0.9663239-1.5256348,1.4482079-2.7239685,1.4482079c-0.7765198,0-1.4898376-0.2134209-2.1410828-0.6416397
	c-0.6506042-0.4269753-1.1555176-1.0251579-1.5128174-1.7921371c-0.3579102-0.7656555-0.5368347-1.6463699-0.5368347-2.6421432
	c0-0.9714928,0.1622925-1.8522072,0.4863281-2.6447029c0.3240356-0.7900085,0.8097534-1.3971558,1.4578857-1.8189621
	c0.6480408-0.4205666,1.3728027-0.6314964,2.1737061-0.6314964c0.5866394,0,1.1094971,0.1240234,1.5683289,0.3706932
	c0.4582825,0.2479706,0.8309326,0.5701065,1.1178589,0.9663849v-4.8193665h1.6419067v13.4335327H278.1035461L278.1035461,44.0142632
	z M277.3608398,36.3626213c-0.5138245-0.6225281-1.1465454-0.9343834-1.8981934-0.9343834
	c-0.7337341,0-1.34729,0.2990913-1.8387451,0.8973427c-0.492157,0.5994911-0.7382202,1.5428391-0.7382202,2.8325996
	c0,1.2463036,0.2626953,2.1768913,0.7886963,2.7942505c0.5259705,0.617424,1.1459656,0.9254799,1.8617554,0.9254799
	c0.7209473,0,1.3338623-0.2952957,1.8381348-0.8845787c0.5042725-0.5892792,0.7567749-1.4891739,0.7567749-2.6983681
	C278.1310425,37.9629936,277.8740845,36.9851532,277.3608398,36.3626213L277.3608398,36.3626213z M287.8611145,44.0142632
	v-1.4290962c-0.7579956,1.0993118-1.7882385,1.6489334-3.0901794,1.6489334c-0.5745544,0-1.1114197-0.1098862-1.6093445-0.3297882
	c-0.4985046-0.2198334-0.8685303-0.4959602-1.1101685-0.8295364c-0.2409058-0.3323402-0.4102783-0.740139-0.508728-1.2233315
	c-0.0671387-0.3233795-0.1009827-0.8372612-0.1009827-1.5389786v-6.0295448h1.6508484v5.3968048
	c0,0.8615417,0.0338745,1.4418564,0.1009827,1.7409477c0.104187,0.4333191,0.3240662,0.7746277,0.6602173,1.0226059
	c0.3362122,0.2467346,0.7516479,0.3706894,1.2476196,0.3706894c0.4946289,0,0.9593201-0.1265068,1.39328-0.3808975
	c0.4339905-0.2530823,0.741394-0.5982475,0.9216309-1.0353699c0.1802368-0.4359398,0.2709351-1.0699272,0.2709351-1.9007683
	v-5.2140121h1.650238v9.7313423H287.8611145L287.8611145,44.0142632z M296.578186,35.9139862
	c-0.38797-0.3297958-0.8576965-0.4947205-1.4073792-0.4947205c-0.8314819,0-1.5070496,0.2978554-2.0266724,0.893486
	c-0.5195923,0.5956955-0.7797546,1.5377388-0.7797546,2.826252c0,1.3076286,0.2505493,2.2573891,0.7522583,2.8505325
	c0.5011292,0.591835,1.1555786,0.8883743,1.9621582,0.8883743c0.6480408,0,1.1887817-0.1981697,1.6227417-0.5956955
	c0.4345703-0.3962135,0.7094421-1.0085335,0.8257446-1.8330307l1.6234131,0.2109337
	c-0.1777039,1.1184845-0.6320801,1.9927864-1.36203,2.6255264c-0.7304993,0.63274-1.6278381,0.9484558-2.6913452,0.9484558
	c-1.3332214,0-2.4043884-0.4358749-3.2141724-1.3050728c-0.8104248-0.8717537-1.2156067-2.1193619-1.2156067-3.7440147
	c0-1.0507469,0.1744995-1.9698143,0.5234375-2.7584496c0.3476563-0.7874527,0.8787537-1.3792877,1.5907593-1.772953
	c0.7120056-0.3937263,1.4866333-0.5905914,2.3245544-0.5905914c1.0577393,0,1.9224854,0.2671547,2.5948181,0.8014641
	c0.6730652,0.5343056,1.1038208,1.2936172,1.2936096,2.2766304l-1.6054688,0.2479744
	C297.2370911,36.7358665,296.966156,36.2437706,296.578186,35.9139862L296.578186,35.9139862z M306.4968262,44.0142632
	c-0.171936-0.3425484-0.2818909-0.7426949-0.3304443-1.2002945c-0.6116638,0.5189934-1.2002869,0.8858223-1.7658691,1.0993118
	c-0.5650024,0.2134857-1.1722107,0.3208199-1.8196106,0.3208199c-1.0699158,0-1.8924866-0.2607422-2.467041-0.7835312
	c-0.5746155-0.5215416-0.8621826-1.1887741-0.8621826-2.0017509c0-0.4767799,0.1086426-0.9114113,0.3259277-1.306385
	c0.2167053-0.3937263,0.5010681-0.7094421,0.8526306-0.948452c0.351532-0.2377701,0.7471313-0.4180107,1.1874695-0.5407219
	c0.3240356-0.0856705,0.8129883-0.1674805,1.4674377-0.2466698c1.3325806-0.1585121,2.3136292-0.3490257,2.9432068-0.5688629
	c0.0063477-0.2262497,0.0095825-0.369381,0.0095825-0.4307709c0-0.6710892-0.1559753-1.1453171-0.4678345-1.4201279
	c-0.421875-0.3719978-1.0488586-0.5585899-1.8803406-0.5585899c-0.7758789,0-1.3491821,0.1354752-1.7186279,0.4077339
	c-0.3700562,0.2722588-0.6436157,0.7528992-0.821228,1.4431686l-1.6138611-0.2198372
	c0.1470642-0.6902657,0.3886108-1.247612,0.724823-1.6719666c0.3355408-0.4244232,0.8218689-0.7516556,1.4578247-0.9817009
	c0.6359558-0.2288055,1.3728943-0.342617,2.210144-0.342617c0.8314819,0,1.5070496,0.0971909,2.0266418,0.2927361
	c0.5196228,0.1955643,0.9011841,0.4409904,1.1459656,0.737587c0.2441711,0.2965469,0.4161072,0.671032,0.5132141,1.1222878
	c0.0549927,0.2812233,0.0824585,0.7887001,0.0824585,1.5211067v2.1998672c0,1.5326309,0.0357971,2.5028801,0.1061096,2.9093704
	c0.070282,0.4064255,0.2089539,0.7963562,0.4173584,1.1682892H306.4968262L306.4968262,44.0142632z M306.0283508,39.1300392
	c-0.5989075,0.244175-1.497467,0.4524994-2.6958618,0.6225281c-0.6781006,0.0984344-1.1587524,0.2083817-1.4399719,0.3297806
	c-0.2805786,0.1227188-0.4978638,0.301651-0.6506042,0.5368652c-0.1534119,0.235218-0.2294617,0.4959564-0.2294617,0.783596
	c0,0.4397354,0.1668396,0.8065567,0.4998169,1.099308c0.3330078,0.2926788,0.8206482,0.4396706,1.4622803,0.4396706
	c0.6359558,0,1.2015991-0.1393356,1.6968994-0.4166985c0.4953918-0.2773628,0.8590088-0.6582642,1.0910034-1.1414566
	c0.1770325-0.3720016,0.2658997-0.9216232,0.2658997-1.6489983V39.1300392L306.0283508,39.1300392z M311.5357056,42.1633644
	c0.0587769,0.1342316,0.1534119,0.2415657,0.2844238,0.3208199c0.1316223,0.0792503,0.3195801,0.1189156,0.5643616,0.1189156
	c0.1834412,0,0.4243469-0.0217285,0.7240906-0.063942l0.2384338,1.4559288
	c-0.4646606,0.0984344-0.8800659,0.1469955-1.2469788,0.1469955c-0.5994873,0-1.0641479-0.0945702-1.3939209-0.2837791
	c-0.3304443-0.1891403-0.5624695-0.438427-0.6972961-0.7464828c-0.1342163-0.3093681-0.2012939-0.957428-0.2012939-1.9467812
	v-5.6000175h-1.2105103v-1.2821007h1.2105103v-2.4107952l1.6412659-0.9893589v3.4001541h1.65979v1.2821007h-1.65979v5.6907845
	C311.4487915,41.726181,311.4781799,42.0291328,311.5357056,42.1633644L311.5357056,42.1633644z M313.9804077,44.0142632v-9.7313423
	h1.6508179v9.7313423H313.9804077L313.9804077,44.0142632z M313.9804077,30.5807304h1.6508179v1.8973007h-1.6508179V30.5807304
	L313.9804077,30.5807304z M325.3382874,41.9664993c-0.3757935,0.7171021-0.9228516,1.2744446-1.6412659,1.6719704
	c-0.7183533,0.3962784-1.502594,0.5956306-2.3519592,0.5956306c-1.3639221,0-2.4657898-0.4371185-3.3055725-1.3101807
	c-0.8411255-0.8743019-1.2610474-2.1321297-1.2610474-3.7759476c0-1.8010941,0.5004883-3.1368637,1.5039063-4.0035095
	c0.8372498-0.7209625,1.858551-1.0814438,3.0627136-1.0814438c1.3383179,0,2.4331665,0.4384956,3.2825317,1.3140411
	c0.8500366,0.8769226,1.275116,2.088726,1.275116,3.6341286C325.90271,40.2638397,325.7147522,41.2480927,325.3382874,41.9664993
	L325.3382874,41.9664993z M323.3851624,36.3575172c-0.5471191-0.6186676-1.2277832-0.9292793-2.0401001-0.9292793
	c-0.8251648,0-1.5102539,0.3080597-2.0541687,0.9254189c-0.5445251,0.617424-0.8161926,1.5480042-0.8161926,2.7943153
	c0,1.2462997,0.2716675,2.1793747,0.8161926,2.7993507c0.5439148,0.6199799,1.2290039,0.9305878,2.0541687,0.9305878
	c0.8187256,0,1.5007019-0.3119164,2.0451965-0.9344482c0.5432739-0.6237717,0.8155518-1.5734711,0.8155518-2.8504677
	C324.2058105,37.8901482,323.9322205,36.9787369,323.3851624,36.3575172L323.3851624,36.3575172z M333.3491821,44.0142632
	v-5.9195938c0-0.6723976-0.0639648-1.1747093-0.1924133-1.5070419c-0.128479-0.3336449-0.3566284-0.599556-0.683197-0.7976646
	c-0.32724-0.1981049-0.7106934-0.2978477-1.1510925-0.2978477c-0.7030334,0-1.3096008,0.2236977-1.8201904,0.6685371
	c-0.5106812,0.4461517-0.7650757,1.2923126-0.7650757,2.5386162v5.3149948h-1.6514893v-9.7313423h1.4859619v1.3830795
	c0.7151489-1.0686722,1.7486877-1.6029816,3.099762-1.6029816c0.586731,0,1.1261292,0.104847,1.6182861,0.3157806
	c0.4914551,0.2108727,0.8602295,0.4869919,1.105011,0.8295403c0.2441711,0.3426132,0.4154663,0.7477951,0.5132446,1.2182236
	C334.9693604,36.7320709,335,37.2663765,335,38.0307312v5.983532H333.3491821L333.3491821,44.0142632z"/>
<path d="M84.6623917,16.1687012c0,1.6493168,0.083374,3.415535,0.2501984,5.2983723
	c0,1.0660629-0.3000717,1.5991192-0.9002151,1.5991192c-0.4837875,0-0.7672348-0.3080521-0.8503494-0.9244938
	c-0.1000061-0.6666412-0.1501999-1.4578266-0.1501999-2.374342c0-0.2662392,0.0162964-1.1744499,0.0501938-2.7239609
	c-0.6170959-0.033247-1.2593918-0.0498695-1.925705-0.0498695c-1.4006271,0-2.9432068,0.1585121-4.6269531,0.4748821
	c-0.033905,0-0.0664902,0-0.1000671,0c-0.0670853,0.3166962-0.1418915,0.5745564-0.2249374,0.7742996
	c-0.5170975,1.5163364-1.2926407,2.7409096-2.3257828,3.6737232c-0.8842545,0.7663155-1.6010284,1.1497612-2.1510391,1.1497612
	c-0.5669022,0-1.1919174-0.2664928-1.8758392-0.7995567c-0.6838531-0.4834538-1.0251541-0.9161892-1.0251541-1.2999763
	c0-0.2661648,0.1664963-0.3997402,0.500145-0.3997402c1.6668625,0,2.9422226-0.3579292,3.8264694-1.0743752
	c0.933403-0.6829357,1.5920639-1.8496552,1.9758377-3.4989128c0.3333206-1.382432,0.4998169-3.3570337,0.4998169-5.9225464
	c0-0.6161079-0.0999985-1.4495068-0.2997437-2.4992728c0-0.5333252,0.2332535-0.7998977,0.7001495-0.7998977
	c0.4499435,0,0.7417068,0.116961,0.8752823,0.3502789c0.1501999-0.033247,0.3250122-0.0501976,0.5253448-0.0501976
	c2.3507156,0,4.284729,0.0418859,5.8020477,0.1249375c0.3665009,0,0.7004776-0.0747399,1.0005493-0.2249403
	c0.6665802,0,1.0002213,0.3336477,1.0002213,0.9995608C84.8458328,10.087389,84.6623917,12.8199873,84.6623917,16.1687012
	L84.6623917,16.1687012z M76.8595657,12.9698601c-0.0501328,1.1830807-0.125267,2.1829767-0.2249374,2.9991627
	c0.6001434-0.1163712,1.5667953-0.1754627,2.9009857-0.1754627c1.1501007,0,2.3340988,0.0837069,3.5510101,0.2501965
	c0.0166245-0.9832649,0.0335083-2.1324444,0.0501404-3.4487095c-2.901001,0-4.9769058,0.124938-6.227005,0.3748131
	C76.8928146,12.9698601,76.8758621,12.9698601,76.8595657,12.9698601L76.8595657,12.9698601z M82.9616241,8.5215759
	c-0.6167068-0.0831175-1.5591354-0.1252728-2.8258591-0.1252728c-0.8673019,0-1.9173965,0.0837135-3.1512604,0.2502098
	c0,0.9995689-0.0168839,1.9243965-0.0501328,2.7738304c0.116951-0.0329199,0.24189-0.0498705,0.3751373-0.0498705h5.3271713
	c0.1833801,0,0.3581924,0.0169506,0.5253448,0.0498705c0.0162964-0.7998905,0.0332413-1.6493235,0.0498657-2.5492163
	C83.2118912,8.6548176,83.1281204,8.5384607,82.9616241,8.5215759L82.9616241,8.5215759z M72.2828064,11.4203434
	c-0.0501938,0.9666481-0.0748062,1.9911442-0.0748062,3.0738373c0,0.75002,0.0329208,1.7745876,0.1000061,3.0739021
	c0,0.5330639-0.2339096,0.7998905-0.7001495,0.7998905c-1.0344543-0.1332493-1.9678497-0.2000713-2.8013153-0.2000713
	c-1.4505005,0-2.3756561,0.0252628-2.7760544,0.0748062c-0.3502045,0.0169506-0.7589264,0.0590992-1.2254944,0.1252651
	c-0.4668961,0-0.7002106-0.2333183-0.7002106-0.6998291c0.133316-1.4994431,0.1997375-2.8073969,0.1997375-3.9239836
	c0-1.1823606-0.0664215-2.5986938-0.1997375-4.2482796c0-0.4828663,0.2333145-0.7247572,0.7002106-0.7247572
	c0.2332535,0,0.4831924,0.0339012,0.750351,0.1000032c0.2332535,0.0671482,0.591507,0.1000681,1.0752869,0.1000681h2.3759766
	c0.5502777,0,1.1839981,0.0335083,1.9011002,0.0996752c0.2329254,0,0.5329971-0.0661669,0.8998947-0.1997433
	c0.466568,0,0.7001495,0.2668915,0.7001495,0.8002167c0,0.0495434-0.0169525,0.1412268-0.0495453,0.2744837
	C72.374176,10.2123928,72.3159943,10.7041588,72.2828064,11.4203434L72.2828064,11.4203434z M70.9077072,10.4955149
	c0-0.2163668-0.0671463-0.3246813-0.2007217-0.3246813c-1.0002289-0.066494-2.4673462-0.0997486-4.4013596-0.0997486
	c-0.33358,0-0.5000839,0.1748161-0.5000839,0.5244331c0,0.7666426-0.0086365,1.5080233-0.0252609,2.2244692
	c0.1000061-0.0331812,0.2080536-0.0501328,0.3250122-0.0501328h4.4020081c0.133255,0,0.2665024,0.0169516,0.4004059,0.0501328
	V10.4955149L70.9077072,10.4955149z M70.9077072,13.8694916c-2.4015656,0.0168848-4.1185608,0.1501341-5.152359,0.3997488
	c-0.0335083,0.8165131-0.0837021,1.6160107-0.1498718,2.3992777c0,0.2664986,0.2000656,0.3997478,0.6001434,0.3997478
	c0.7337265-0.0501308,1.6003723-0.0747395,2.6009216-0.0747395c0.500145,0,1.0667114,0.0246086,1.7007599,0.0747395
	c0.2665024,0,0.4004059-0.0910358,0.4004059-0.2751446V13.8694916L70.9077072,13.8694916z M112.457756,24.0405712
	c-0.7171021,0.3502045-1.3425064,0.5250053-1.8755112,0.5250053c-0.3499451,0-0.6838531-0.0916824-1.0005493-0.2748032
	c-1.5173187-0.7666435-3.2761993-1.6157494-5.2769699-2.5491505c-0.033577,0.016943-0.0581818,0.0335083-0.0748062,0.0498047
	c-1.0506821,1.0165844-2.3257828,1.7997856-3.8267365,2.3491459c-0.4336472,0.1668243-0.7749557,0.2502022-1.0252228,0.2502022
	c-0.3498764,0-0.6918411-0.1917-1.0254211-0.5752182c-0.3170242-0.2495422-0.4752045-0.4998093-0.4752045-0.7493649
	c0-0.2827892,0.1003265-0.4499397,0.3003998-0.4998093c0.8333969-0.0664291,1.550499-0.1916943,2.1506424-0.3751411
	c0.9503555-0.2997475,1.7339478-0.6493626,2.3507156-1.0491123c0.0502014-0.0335732,0.0916977-0.0585098,0.124939-0.0754604
	c-0.8666458-0.4163723-1.7755051-0.8493748-2.7258606-1.2993126c-0.1997375-0.100069-0.3419571-0.2000713-0.4250107-0.3000813
	c-0.5340424,0.5167084-1.1593857,1.0497665-1.8759003,1.5993938c-1.5504913,1.0667171-2.7507858,1.599781-3.6011353,1.599781
	c-0.500412,0-0.9756165-0.2080555-1.4255676-0.624754c-0.4499435-0.31637-0.6749496-0.6330662-0.6749496-0.9500904
	c0-0.1997433,0.1827927-0.3160496,0.5500183-0.349617c1.6332855-0.0162964,3.2343063-0.4748821,4.8014374-1.3747749
	c1.3839951-0.7656612,2.5926056-1.7991314,3.6264038-3.0984459c0.1837692-0.2000694,0.3585739-0.2997456,0.5253372-0.2997456
	c0.2000656,0,0.3000717,0.0996761,0.3000717,0.2997456c0,0.2332535-0.124939,0.5665741-0.3751373,0.9995689
	c0.8004761-0.0667553,1.391983-0.1000023,1.7755051-0.1000023c0.6333923,0,1.4671173,0.033247,2.5012436,0.1000023
	c0.1332474,0,0.3997421-0.033247,0.800148-0.1000023c0.6832657,0,1.0258102,0.2415638,1.0258102,0.7247562
	c0,0.1000042-0.0840302,0.2080555-0.2501984,0.3246822c-0.2173538,0.2003326-0.5343094,0.6084576-0.9504166,1.2245731
	c-0.2841034,0.433651-0.5924225,0.8247604-0.9257507,1.1747036c0.6336594,0.2170219,1.2670517,0.4250126,1.9007797,0.6247559
	c1.9010925,0.5835152,3.8676376,0.8998928,5.9019852,0.9494362c0.3339691,0,0.5004654,0.1249294,0.5004654,0.3751411
	C113.7833099,22.9326229,113.3413544,23.4241276,112.457756,24.0405712L112.457756,24.0405712z M105.5053482,18.4929123
	l0.0747375-0.124939c0-0.0831165-0.1000061-0.1332493-0.2997437-0.1501999
	c-0.2671585-0.0329189-0.6004715-0.0498714-1.0005493-0.0498714c-0.3336487,0-0.9088593,0.0252628-1.7253113,0.0748062
	c-0.4838486,0.0837059-0.9091873,0.1917591-1.2757492,0.3250084c-0.2671509,0-0.458847-0.0661659-0.5752182-0.1997433
	c-0.0999985,0.1166267-0.2000046,0.2335796-0.3003311,0.3499374c1.2507553,0.5160542,2.4676666,0.9912624,3.6516037,1.4245853
	c0.1501999-0.1501999,0.3003998-0.3003998,0.4499435-0.4502735
	C104.9553299,19.2259808,105.2883224,18.826231,105.5053482,18.4929123L105.5053482,18.4929123z M103.4795761,13.9691668
	c0-0.0495434,0.1664963-0.5825491,0.5001373-1.5991259c0.133255-0.2000055,0.3333206-0.2997465,0.6004791-0.2997465
	c0.3997498,0,0.6001434,0.1744814,0.6001434,0.5247526c0,0.2332516-0.0338974,0.3914366-0.1000671,0.4745541
	c-0.8004761,0.7998905-1.2341309,1.1996393-1.3009491,1.1996393
	C103.5796432,14.2692404,103.4795761,14.1692371,103.4795761,13.9691668L103.4795761,13.9691668z M106.3806305,14.069169
	c0-0.0495434,0.2332535-0.6161156,0.7001495-1.6991282c0.1501999-0.2000055,0.3834534-0.2997465,0.7001495-0.2997465
	c0.4004059,0,0.6004715,0.1744814,0.6004715,0.5247526c0,0.2834492-0.0335693,0.4745541-0.1000671,0.5745564
	c-0.9171066,0.7995634-1.4172516,1.1996393-1.5006256,1.1996393
	C106.5138779,14.3692427,106.3806305,14.2692404,106.3806305,14.069169L106.3806305,14.069169z M110.1818466,14.5689859
	c0,0.4835205-0.1997452,0.9919109-0.6001511,1.5246477c-0.4001389,0.5333252-0.7666397,0.7998905-1.1006165,0.7998905
	c-3.3346405-0.883007-5.6354904-1.3243151-6.9022751-1.3243151c-0.5000763,0-1.1673737,0.0748053-2.0007706,0.2243509
	c-0.3997498,0-0.6004791-0.1409063-0.6004791-0.4243565c0-0.1003952,0.0668259-0.2333174,0.2007294-0.4004688
	c0.7333908-0.7656612,1.1663895-1.4993849,1.300293-2.1988802c0.0495453-0.3333197,0.2911072-0.4998159,0.7250824-0.4998159
	c0.4502792,0,0.6752167,0.2000704,0.6752167,0.5998192c0,0.1166258-0.0747375,0.2581873-0.2249374,0.4250107
	c-0.2671585,0.3998146-0.5253448,0.7496929-0.7756119,1.0497665c3.7181625,0.3662395,5.9186783,0.5493593,6.6028595,0.5493593
	c0.6167679,0,1.4169159-0.2748108,2.4009094-0.8248253C110.0820999,14.069169,110.1818466,14.2363205,110.1818466,14.5689859
	L110.1818466,14.5689859z M96.577034,13.6946831c0.4831314,0,1.0832748-0.3080654,1.8003769-0.9248285
	c0.133316,0,0.2003937,0.1000032,0.2003937,0.2997465c0,0.2338991-0.2498703,0.6835184-0.7503433,1.3498392
	c-0.4668961,0.6994953-0.8842545,1.0497656-1.2504272,1.0497656c-0.2671509,0-0.4841766-0.1332493-0.6500168-0.400403
	c-0.2339096-0.3496161-0.3505325-0.7493649-0.3505325-1.1993113c0-0.1831274,0.0664291-0.2748766,0.2003326-0.2748766
	C96.1433868,13.661109,96.4102097,13.6946831,96.577034,13.6946831L96.577034,13.6946831z M112.3829498,14.2692404
	c0,0.4668894-0.2339096,0.6994944-0.7001495,0.6994944c-0.4004059,0-0.6004715-0.1996775-0.6004715-0.5994921
	c0-0.982625,0.0329208-1.8741989,0.1000671-2.673769c-2.1008453-0.2163591-4.7356644-0.3250008-7.9031525-0.3250008
	c-3.3512726,0-6.1768646,0.1332417-8.4780426,0.3997488c0,1.616396-0.0748062,2.5907087-0.2249985,2.9237022
	c-0.1000061,0.2502031-0.3335876,0.3748789-0.7001572,0.3748789c-0.3339005,0-0.5001373-0.0911016-0.5001373-0.2748108
	c0-1.6327-0.1338425-3.0320826-0.4004059-4.1984739c0-0.4163723,0.2665634-0.6244278,0.8002167-0.6244278
	c0.216629,0,0.3751373,0.0415583,0.4752121,0.1246109c0.1664886,0.1166916,0.3083801,0.1751347,0.4253311,0.1751347
	c1.0334778-0.033246,2.242012-0.0584431,3.6264038-0.0750666c-0.0169449-0.0498705-0.0252609-0.0914297-0.0252609-0.1246843
	l-0.4000702-1.0002146c0-0.4492922,0.2664948-0.6745672,0.8004761-0.6745672c0.6001434,0,0.9002228,0.2585144,0.9002228,0.7746353
	l-0.2000732,0.9998951c0.7669678,0,1.5671844,0,2.4009094,0c0.250206,0,0.500473,0,0.750351,0
	c-0.0169449-0.066494-0.033577-0.1332493-0.0502014-0.1997433l-0.1996765-1.0999632
	c0-0.4659157,0.2665024-0.6998224,0.7998276-0.6998224c0.6004715,0,0.9005432,0.2671537,0.9005432,0.7998905l-0.4000702,1.0998898
	c0,0.0332546,0,0.0665016,0,0.0997486c1.1002274,0.0166235,2.15065,0.0415592,3.1511917,0.0750675l0.6500244-1.9493313
	c0.083374-0.4163723,0.3166885-0.625082,0.70047-0.625082c0.6004715,0,0.9002228,0.2754655,0.9002228,0.8248253
	l-1.0753555,1.7745228c1.2169113,0.0498705,2.3423996,0.1246109,3.3761978,0.224679l1.1005554-0.224679
	c0.4662399,0,0.7002106,0.1668243,0.7002106,0.4998169c0,0.1498737-0.0501938,0.3166971-0.1501999,0.4998169
	C112.6827011,11.903471,112.4993134,12.903759,112.3829498,14.2692404L112.3829498,14.2692404z M108.5811462,6.971993
	c-4.2681122,0.7333961-7.769577,1.0993094-10.503479,1.0993094c-0.500412,0-0.8589935-0.0827904-1.0752945-0.2496219
	c-0.2173462-0.1996703-0.3256607-0.4499388-0.3256607-0.7496848c0-0.2661719,0.2003937-0.4000759,0.6004715-0.4000759
	c0.8835983,0.0667553,1.4505005,0.0999947,1.7003708,0.0999947c0.8839264,0,2.4175415-0.116291,4.6020889-0.3496089
	c1.6336136-0.2003322,3.0425491-0.4914393,4.2265472-0.8749576c0.2332535-0.1162987,0.4250107-0.174808,0.5752106-0.174808
	c0.216301,0,0.4000778,0.1000681,0.5502777,0.3000731c0.1661682,0.1664968,0.2498779,0.3745518,0.2498779,0.6247549
	C109.1815567,6.5971141,108.9815521,6.8221197,108.5811462,6.971993L108.5811462,6.971993z M141.654068,19.6174831
	c-0.367157,0.4333229-0.7008057,0.6496239-1.0005493,0.6496239c-0.5003967,0-1.1091919-0.1412334-1.8256378-0.4250107
	c-1.1337891-0.4326687-2.4009094-0.7244301-3.8012085-0.87463c-0.1501923-0.033247-0.3093567-0.0495434-0.4752045-0.0495434
	c0,0.1495457,0,0.2997456,0,0.4492912c0,0.5337181,0.0661621,1.4332848,0.1997375,2.6994171
	c0,0.8324165-0.2837677,1.4159393-0.8503418,1.7489262c-0.5669708,0.3163776-1.1840057,0.4752159-1.8509674,0.4752159
	c-0.4167023,0-0.6748962-0.1086407-0.7748871-0.3250084c-0.1000671-0.3336468-0.2668915-0.6915112-0.5001526-1.0743732
	c-0.0837097-0.066494-0.1252594-0.1415615-0.1252594-0.2249413c0-0.1333141,0.1000061-0.2000713,0.3003998-0.2000713
	c1.0836029,0,1.766861-0.1079865,2.0503082-0.3246803c0.2339172-0.2000713,0.3505402-0.5502758,0.3505402-1.0500927
	c-0.0670776-0.6330662-0.1003265-1.2076244-0.1003265-1.7243919c0-0.1996841,0-0.3997478,0-0.5994911
	c-0.9998932-0.0661011-2.067276-0.1000042-3.2010651-0.1000042c-1.7671967,0-3.4931641,0.091692-5.1769714,0.2748108
	c-0.967308,0.1166267-2.4756546,0.5915012-4.5262985,1.4243183c-0.5343094,0-0.8008118-0.1997433-0.8008118-0.5994911
	c0-0.3000813,0.1163025-0.5496883,0.3502121-0.7497005c0.2834473-0.3662338,0.6666336-0.5500069,1.1507492-0.5500069
	c3.9677048-0.6662483,7.0026627-0.9992409,9.1031113-0.9992409c0.9836731,0,2.05896,0.033247,3.2260132,0.0996742
	c0.0166168-0.1501999,0.0415497-0.2828026,0.0754547-0.3997478c0-0.4662437,0.2332458-0.6995602,0.7001495-0.6995602
	c0.466568,0,0.7001495,0.2333164,0.7001495,0.6995602c-0.0498657,0.1498718-0.0916901,0.3000736-0.124939,0.4496193
	c0.3329926,0.0339012,0.6665802,0.0587711,1.0005493,0.0753937c1.6668701,0.1332493,3.0758057,0.1997433,4.2265472,0.1997433
	c0.6333923,0,1.4003754-0.2080536,2.3008575-0.624754c0.1332397,0,0.200058,0.2087021,0.200058,0.624754
	C142.4542847,18.4261551,142.1871338,19.0013676,141.654068,19.6174831L141.654068,19.6174831z M137.8522644,8.5711184
	c-1.4837341-0.0661736-3.5180817-0.1163635-6.1021118-0.1496105c-0.0169525,0.2665644-0.033844,0.5167675-0.0501404,0.7494307
	h0.349884c1.0836639,0,2.3513641,0.0338354,3.8018646,0.1000023c0.2163696,0,0.4835205-0.0329199,0.8002167-0.1000023
	c0.4662476,0,0.7001495,0.2335796,0.7001495,0.7001495c0,0.0166235-0.0166168,0.0667553-0.0498657,0.1498728
	c-0.0833893,0.1498728-0.1418915,0.4246836-0.1751404,0.8244324c-0.0498047,0.5337181-0.0750732,1.0996361-0.0750732,1.6994562
	c0,0.3499432,0.0335846,0.8248253,0.1000061,1.4243174c0,0.4835205-0.1996765,0.7247572-0.6001434,0.7247572
	c-0.8841858-0.0827246-1.7176514-0.1412344-2.5009155-0.1744814c0.1163635,0.2166872,0.2163696,0.4246845,0.3000641,0.6247549
	c0.133316,0.3329935,0.2004089,0.5493603,0.2004089,0.6493626c0,0.4502735-0.3003998,0.6915112-0.9005585,0.7247581
	c-1.050415,0.1000023-1.9007568,0.1501999-2.5510406,0.1501999l-1.4508209-0.1000023
	c-0.5500183,0-1.2172394,0.0335007-2.0005112,0.1000023c-0.5339813,0-0.8001556-0.1997433-0.8001556-0.5998192
	c0-0.1498737,0.1166229-0.3499441,0.3502045-0.599493c0.383522-0.3163691,0.7085266-0.6330662,0.9753647-0.9497633
	c-0.3173599,0-0.5592499,0.0166235-0.7250977,0.0495434c-0.5343018,0.0169506-1.1677017,0.091691-1.9010925,0.2250061
	c-0.4001465,0-0.6004791-0.2413025-0.6004791-0.724823c0.133255-0.8327446,0.2003326-1.5655518,0.2003326-2.1988792
	c0-0.5829344-0.0670776-1.2830839-0.2003326-2.0992699c0-0.4662428,0.2332535-0.7001495,0.7008057-0.7001495
	c0.2163696,0,0.4329987,0.0169506,0.6500168,0.0505247c0.216301,0.033247,0.5333252,0.0495434,0.9500275,0.0495434h3.2017136
	c0-0.1997433,0-0.4081335,0-0.6244278c0-0.033247,0-0.0834522,0-0.1502075c-1.2507477,0-2.618187,0-4.1016083,0
	c-0.6506042,0-1.550499,0.0916986-2.7012405,0.2748184c-0.5337219,0-0.8002243-0.1997433-0.8002243-0.5998192
	c0-0.2326636,0.1163635-0.4576039,0.3502731-0.6742983c0.1831207-0.2163668,0.4000702-0.3250084,0.6499481-0.3250084
	l1.0005493,0.1249375c2.0507126,0,3.9016037-0.0162959,5.5521164-0.0501323
	c-0.0168915-0.2329903-0.033844-0.4911776-0.0504608-0.7746277c0-0.4665699,0.2006531-0.6995602,0.6007996-0.6995602
	c0.6001434,0,0.9002228,0.2665648,0.9002228,0.7995553c0,0.233645-0.0086365,0.4582658-0.0252686,0.6746325
	c3.0515289-0.0166235,5.2932739-0.0412312,6.7274628-0.0748053c0.2003479,0,0.3003998,0.1664963,0.3003998,0.4998164
	c0,0.216629-0.0917511,0.4166999-0.2751312,0.5994925C138.3606567,8.4384584,138.1187744,8.5711184,137.8522644,8.5711184
	L137.8522644,8.5711184z M129.6490479,15.5692091h1.9761658c0.4831848,0,0.8835907-0.0166235,1.2002869-0.0504599
	c0.1502075-0.0162964,0.2249451-0.099741,0.2249451-0.2499409c0-0.0159693-0.0085754-0.0412312-0.0248718-0.0750675
	c-0.0668182-0.0827904-0.1585083-0.1827927-0.2748718-0.2997465c-0.0840454-0.1495457-0.1339111-0.2911072-0.1502075-0.4250107
	c-0.3335876,0-0.6502686,0-0.9503479,0c-0.7340546,0-1.3843384,0-1.9506378,0
	c-0.1670837,0.2671461-0.3502045,0.5336523-0.5506134,0.7998247
	C129.1488953,15.4692059,129.3153992,15.5692091,129.6490479,15.5692091L129.6490479,15.5692091z M126.3482361,13.0696011
	c0,0.3502054,0.1661682,0.5250139,0.500145,0.5250139c0.6665726-0.0501318,1.3753586-0.0830517,2.1257095-0.1000099
	c0.2163696-0.333313,0.4167023-0.6746178,0.6001434-1.0244961c-1.1002197,0.0664282-2.0758972,0.1418886-2.9262466,0.2249403
	c-0.0833817,0-0.1581879-0.0083113-0.2249451-0.0252628C126.4060898,12.8036909,126.381485,12.9363441,126.3482361,13.0696011
	L126.3482361,13.0696011z M126.9483871,10.2708359c-0.2668304,0-0.4004059,0.1332502-0.4004059,0.3998146
	c0,0.249876-0.0086365,0.4834547-0.0249329,0.6998224c0.083374,0,0.1585083,0,0.2250061,0h3.2764511
	c0.0332489-0.0831175,0.0581818-0.1665039,0.0751343-0.2502031c0.0830536-0.2659101,0.1498718-0.5493603,0.2000122-0.8494339
	C129.2821503,10.2708359,128.1652985,10.2708359,126.9483871,10.2708359L126.9483871,10.2708359z M130.8997955,12.4202385
	c-0.1501923,0.3496161-0.3419647,0.6994944-0.5752106,1.0491114c0.4333191,0,0.8749695,0,1.3255615,0
	c1.1334686,0,2.4008484,0.0422134,3.8012085,0.1252651c0.2664948,0,0.4004059-0.1415615,0.4004059-0.4250116v-0.7995625
	C134.0008545,12.3700409,132.350296,12.3869915,130.8997955,12.4202385L130.8997955,12.4202385z M131.5501404,10.2954445
	c-0.0671539,0.4166994-0.1418915,0.7586508-0.2253265,1.0248308c0,0.0169506,0,0.0339012,0,0.0501976h4.4515533
	c0.0332489,0,0.0584412,0,0.0753937,0v-0.7749548c0-0.1329231-0.0670776-0.2000713-0.2003326-0.2000713
	C134.5677643,10.3459616,133.2006378,10.3123951,131.5501404,10.2954445L131.5501404,10.2954445z M125.54776,21.9665623
	c0-0.1162987,1.0337982-0.7078056,3.1013336-1.7745228c0.200058,0,0.2998047,0.091692,0.2998047,0.2748108
	c0,0.1501999-0.0664978,0.3166981-0.1997528,0.4998093c-1.5010147,1.6163464-2.3600006,2.4245491-2.5763016,2.4245491
	c-0.6171036,0-0.9251556-0.1751442-0.9251556-0.5247536C125.2476883,22.4161816,125.3476868,22.116436,125.54776,21.9665623
	L125.54776,21.9665623z M170.0741882,23.2160645c-0.4167023,0.4998245-0.8001404,0.7497005-1.1500854,0.7497005
	c-0.500412,0-1.1091919-0.1664963-1.8256378-0.4998169c-1.1338654-0.5167027-2.4009247-0.874958-3.8012085-1.0747013
	c-1.5010376-0.216301-3.1602325-0.3246155-4.9772339-0.3246155c-1.7502441,0-3.451004,0.1000023-5.1021576,0.3000736
	c-0.9836121,0.1162987-2.4842987,0.6161156-4.5013733,1.4990578c-0.6672974,0-1.0002899-0.2665005-1.0002899-0.7995701
	c0-0.3329868,0.1413116-0.6247482,0.4253387-0.8749504c0.3329926-0.416111,0.7912598-0.6244354,1.3751068-0.6244354
	c3.4675598-0.583189,6.202713-0.9081974,8.2032318-0.9750175L157.619873,7.1969333
	c0-0.5998192,0.3000793-0.8995652,0.9001465-0.8995652c0.6666412,0,1.0006256,0.3333201,1.0006256,0.9996333l-0.1253357,5.3980479
	c0.1000671,0,0.2080536,0,0.3250122,0l5.6023102,0.0748053c0.6004639,0,0.9002228,0.2335796,0.9002228,0.6994953
	c0,0.4001417-0.266571,0.5998192-0.8002319,0.5998192c-2.5344086,0-4.5016785,0.0671482-5.9019775,0.2000713
	c-0.0668182,0-0.1170197,0-0.1501923,0l-0.1498871,6.3225489c1.3833466,0.0338936,2.9674225,0.1422157,4.7515717,0.3250084
	c1.6339417,0.1837749,3.0176849,0.2748108,4.1518097,0.2748108c0.7167664,0,1.5837402-0.2412376,2.6009216-0.7247581
	c0.1997375,0,0.3000641,0.2418919,0.3000641,0.7247581C171.0249329,21.8253212,170.7079163,22.4999542,170.0741882,23.2160645
	L170.0741882,23.2160645z M197.244873,20.7669239c-0.6001587,0.466898-1.1172485,0.7001495-1.5512238,0.7001495
	c-0.4499512,0-0.9835968-0.1501999-1.6003723-0.4502087c-1.0002136-0.4663067-2.1174011-0.7826118-3.3509369-0.9497623
	c-0.5675507-0.100069-1.1504211-0.1661701-1.7505646-0.2000713c0,0.1339035,0,0.2671471,0,0.4000759
	c0,1.1999664-0.0920258,2.0580387-0.2754669,2.5740871c-0.233902,0.599884-0.5502777,1.0245686-0.9503479,1.2744446
	c-0.3835297,0.3003998-0.9421082,0.4499378-1.6758423,0.4499378c-0.7835236,0-1.2251587-0.149538-1.3255463-0.4499378
	c-0.1163025-0.4665699-0.3413086-0.9832726-0.674881-1.5492554c0-0.183382,0.1335602-0.2751389,0.4007111-0.2751389
	c0.6161194,0.1834469,1.1159363,0.2751389,1.5000458,0.2751389c0.3661804,0,0.6582642-0.1079884,0.8756104-0.3250103
	c0.1828003-0.1996765,0.3163757-0.5413094,0.3994293-1.0245018c0.0671387-0.3827991,0.1086426-0.8663197,0.1252594-1.4495144
	c-0.3169556,0-0.6499481,0-1.0002289,0c-1.6668549,0-3.2761993,0.0587711-4.8266907,0.1751347
	c-0.9337921,0.1000023-2.359024,0.4413071-4.2770691,1.024168c-0.6000824,0-0.8999023-0.2326546-0.8999023-0.6995525
	c0-0.3000736,0.1253357-0.5579338,0.3752136-0.7745628c0.3163605-0.3333187,0.7254028-0.499815,1.2252197-0.499815
	c3.7018127-0.3502712,6.5357056-0.5250797,8.5035706-0.5250797c0.249939,0,0.4915009,0.0089664,0.7254028,0.0252628
	c-0.0171967-0.0667572-0.0421448-0.1163006-0.0753937-0.1502018c-0.1163025-0.2332516-0.4339752-0.4911766-0.9504089-0.7746277
	c-0.2000122-0.1827927-0.2997589-0.3160419-0.2997589-0.3997478c0-0.3329926,0.1329956-0.4998169,0.4001465-0.4998169
	c0.1495514,0,0.3578644,0.0585022,0.6250153,0.1748085c0.249939,0.1000023,0.4832001,0.2249393,0.7005463,0.3748779
	c0.3661804-0.2329903,0.9586639-0.5912457,1.7754364-1.0743732c0.1329956-0.0668221,0.2000732-0.12533,0.2000732-0.1748085
	c0-0.1163712-0.2249451-0.1754627-0.6755371-0.1754627c-1.7173157,0-3.1343079,0.0501976-4.2514954,0.1502008
	c-0.5170898,0.0498705-1.209259,0.1585112-2.0758972,0.3250074c-0.4672241,0-0.6998291-0.1585121-0.6998291-0.4752083
	c0-0.2163668,0.0996857-0.4406528,0.2997437-0.6746244c0.1661682-0.2163019,0.3668365-0.3249435,0.6007996-0.3249435h0.4997559
	c1.18367-0.1496115,2.2759857-0.2250061,3.2761993-0.2250061c1.2839966,0,2.6926117,0.0753946,4.2265472,0.2250061
	c0.3330078,0,0.6665802-0.0748053,1.0002289-0.2250061c0.6007996,0,0.9005432,0.1671438,0.9005432,0.4998169
	c0,0.1840363-0.1501923,0.3418941-0.450592,0.4751434c-0.2498779,0.1170187-0.7835999,0.4250765-1.6003723,0.9248285
	c-0.7669678,0.4831924-1.5007019,0.974371-2.2005157,1.4741879c0,0.0169506-0.0089722,0.0249271-0.0249329,0.0249271
	c0.0159607,0.0168934,0.0332489,0.0252056,0.0498657,0.0252056c0.1003265,0.1664963,0.1916962,0.3496151,0.2748108,0.5496864
	c0.8008118,0.0501251,1.6668701,0.1249371,2.6012573,0.2249413c1.4335327,0.1501999,2.6511078,0.2250061,3.6513214,0.2250061
	c0.9338074,0,2.0337067-0.2416306,3.3011475-0.7247581c0.1501923,0,0.2249298,0.1996784,0.2249298,0.5998116
	C198.5198975,19.4672756,198.0955505,20.1009388,197.244873,20.7669239L197.244873,20.7669239z M196.5941925,16.5685158
	c0,0.4665699-0.2332458,0.6998215-0.6998138,0.6998215c-0.4672241,0-0.7004852-0.2332516-0.7004852-0.6998215
	c0-0.8328104,0.0664368-1.599781,0.2000122-2.2992754c-1.9346008-0.2000713-4.3684387-0.3000736-7.3026886-0.3000736
	c-3.4180145,0-6.3190002,0.1339035-8.7029724,0.4000759c0,1.4495802-0.1003265,2.323884-0.3003998,2.6242838
	c-0.1169586,0.249548-0.3834534,0.3748131-0.8002167,0.3748131c-0.3335724,0-0.500412-0.1000023-0.500412-0.3000736
	c0-1.4827604-0.1335602-2.7820749-0.4000702-3.8986626c0-0.3827972,0.26651-0.5745564,0.8001556-0.5745564
	c0.2333221,0,0.4090424,0.0415506,0.5254059,0.124938c0.1833801,0.1000023,0.3418884,0.1498728,0.4754639,0.1498728
	c0.2333221,0,0.466568-0.0083122,0.6998901-0.0252628c0-0.0162964,0-0.040904,0-0.0747404
	c-0.0671539-1.2159348-0.0997467-2.2490768-0.0997467-3.0985107c0-0.7832661-0.1003265-1.7164063-0.3003998-2.7993536
	c0-0.5330639,0.3003998-0.7995629,0.9005585-0.7995629c0.2333069,0,0.4083862,0.058444,0.5247498,0.1748085
	c0.1163025-0.033247,0.2415619-0.0498705,0.3751373-0.0498705h1.9007721c0.3336487,0,0.6257324,0.0415587,0.8756104,0.1246104
	c0.2160492,0.0671487,0.3246918,0.2166944,0.3246918,0.4499388c0,0.3502789-0.1329346,0.5250869-0.3994904,0.5250869
	c-1.1842651,0-2.0848083,0.0833793-2.7015839,0.2495484c0,0.2502031-0.0083008,0.500144-0.0249329,0.75002
	c0.0837708,0,0.1585083,0,0.2250061,0h1.5006256c0.3163757,0,0.6084595,0.0418854,0.8756104,0.124938
	c0.2166901,0.066494,0.3253326,0.2166939,0.3253326,0.4496193c0,0.3499432-0.1342316,0.5247517-0.4007263,0.5247517
	c-1.149765,0-2.0004425,0.1000023-2.5501251,0.3000736c0,0.2498751,0,0.4915047,0,0.7247572
	c0.0658417-0.0166235,0.1495514-0.0252628,0.2492828-0.0252628h1.5006256c0.3163757,0,0.6084595,0.0422134,0.8756104,0.1253309
	c0.2166901,0.0833788,0.3253326,0.233572,0.3253326,0.4499464c0,0.3495512-0.1342316,0.5246868-0.4007263,0.5246868
	c-1.2169189,0-2.0918732,0.1166258-2.6255188,0.3496161c-0.0172882,0.333909-0.0415649,0.6585903-0.0748138,0.9749603
	c1.5505676-0.0331812,3.3841858-0.0501328,5.5016479-0.0501328c2.7507935,0,5.1852264,0.0667562,7.3026886,0.2000055v-1.4744492
	c-1.1504211,0.0166225-1.9845428,0.1415606-2.5009155,0.3748789c-0.4000854,0-0.6001587-0.2333183-0.6001587-0.6998882
	c0-0.1501999,0.0913696-0.3080654,0.2754669-0.4748812c0.1828003-0.2000055,0.4243622-0.3000736,0.724762-0.3000736h1.5006866
	c0.216629,0,0.4167023,0.0169506,0.6001587,0.0501976c0-0.3997488,0.0083008-0.7909241,0.0249329-1.1747036
	c-1.1670532,0.0338364-2.0094757,0.1671515-2.5258484,0.400403c-0.4000854,0-0.6001587-0.2332516-0.6001587-0.7001486
	c0-0.1329231,0.0913696-0.2914352,0.2754669-0.4748821c0.1828003-0.2163668,0.4243622-0.3250084,0.724762-0.3250084h1.6010284
	c0.200058,0,0.3828583,0.0169506,0.5502777,0.0501976c0.0159607-0.3499436,0.0408936-0.6912484,0.0747986-1.024569
	c-1.2501678,0.0169511-2.1596069,0.1415615-2.7259216,0.3748789c-0.4007263,0-0.6007385-0.2333174-0.6007385-0.6998219
	c0-0.149611,0.0830536-0.3080578,0.2505341-0.4745541c0.1999969-0.2163672,0.4499512-0.3250089,0.750351-0.3250089h1.9007568
	c0.2498779,0,0.483139,0.0332394,0.6998291,0.0999951c0.1502075-0.1335692,0.3502808-0.2000632,0.6001434-0.2000632
	c0.6001434,0,0.9005585,0.2665648,0.9005585,0.7995553c-0.4339905,1.2993879-0.6672974,3.2237835-0.7004852,5.7729349
	c-0.0160217,0.1997356-0.0581818,0.3668938-0.1252594,0.4998169c0.1840363,0,0.3591614,0.0086384,0.5253296,0.0249348
	l1.1005554-0.1997433c0.5337219,0,0.8002167,0.1664963,0.8002167,0.4998169c0,0.1501999-0.0581818,0.3083849-0.174469,0.4745541
	C196.9361572,14.4280796,196.7277679,15.3359566,196.5941925,16.5685158L196.5941925,16.5685158z M189.8923187,12.2700386
	c-0.233902,0-0.4672241-0.0501986-0.7011261-0.1502008l-1.4252319-0.5492945
	c-0.3170319,0.216629-0.6583405,0.4246769-1.0251617,0.6246891c-0.4001465,0.2665644-0.7420349,0.3998146-1.0258179,0.3998146
	c-0.249939,0-0.4998169-0.1080532-0.7496948-0.3250084c-0.2499237-0.1997442-0.3751984-0.3911753-0.3751984-0.5745649
	c0-0.2000628,0.0997467-0.3080502,0.2997437-0.3250008c0.5503387-0.0831175,1.0500946-0.2080555,1.5006866-0.3748789
	l-0.200058-0.0996761c-0.5336609-0.1501999-0.8001556-0.4250107-0.8001556-0.8248329
	c0-0.3834448,0.2332458-0.5752039,0.6998138-0.5752039c0.1841125,0,0.3918304,0.0671482,0.6257477,0.2000713l1.1254883,0.5994921
	c0.4333191-0.2495489,0.8500214-0.5492945,1.2501526-0.8995657c0.0837097-0.0830517,0.1502075-0.124938,0.2006683-0.124938
	c0.2664948,0,0.3994904,0.1000023,0.3994904,0.3004007c0,0.183382-0.0332489,0.3496161-0.0997467,0.4997435
	c-0.2671509,0.2834578-0.5502777,0.5413837-0.8506775,0.7743082l1.0008698,0.550334
	c0.2997589,0.1332579,0.4499512,0.2914419,0.4499512,0.4745626
	C190.1920624,12.1367884,190.0917358,12.2700386,189.8923187,12.2700386L189.8923187,12.2700386z M189.6916656,8.6711216
	c-0.2000732,0-0.4167786-0.0495434-0.6500244-0.1495457l-0.9752808-0.4748821
	c-0.283783,0.249876-0.5586548,0.4835205-0.8251648,0.6998224c-0.2837677,0.2163668-0.5343018,0.3243542-0.7503357,0.3243542
	c-0.4007416,0-0.8091278-0.1246109-1.2258301-0.3744869c-0.3163605-0.2163668-0.4748688-0.4579964-0.4748688-0.7248297
	c0-0.0329123,0.0664825-0.0581093,0.1994171-0.0750599c0.5003967-0.033247,0.9343719-0.1080527,1.3012695-0.2250061
	c0.1828003-0.0494776,0.3744812-0.1162987,0.5752106-0.1996779l-0.6257324-0.2748766
	c-0.4998169-0.2000051-0.750351-0.4997511-0.750351-0.8995652c0-0.3502059,0.2007294-0.5250139,0.6001434-0.5250139
	c0.1841125,0,0.3835297,0.0667558,0.6007996,0.2000051l1.4002991,0.8743687
	c0.4001465-0.2326632,0.7663269-0.4908504,1.0999756-0.7743006c0.0836945-0.0668211,0.1840973-0.1000681,0.3003998-0.1000681
	c0.2000732,0,0.2997437,0.108707,0.2997437,0.3250089c0,0.0664935-0.1079865,0.1997433-0.3246765,0.3998141
	c-0.2000732,0.2166286-0.4084015,0.4329953-0.6250916,0.6493549l0.724762,0.4250188
	c0.283783,0.1338964,0.4256592,0.308712,0.4256592,0.5250139C189.9919891,8.5465107,189.8923187,8.6711216,189.6916656,8.6711216
	L189.6916656,8.6711216z M227.1158142,22.5663834c-0.4499512,0.7330685-0.8999023,1.0996361-1.3504944,1.0996361
	c-0.6500244,0-2.2427368-0.2665005-4.776825-0.7995644c-0.6001434-0.1668224-1.008606-0.3751392-1.2258911-0.625082
	c-0.1994171-0.1996765-0.2997437-0.5160465-0.2997437-0.9496975c0.2000732-1.2491817,0.2997437-2.3820648,0.2997437-3.3985844
	l-0.0996704-1.3245754c0-0.066494,0.008316-0.124939,0.0249329-0.1751366
	c-0.4998169-0.0162964-1.008606-0.0246067-1.5249786-0.0246067c-0.3674774,1.4827614-0.742691,2.6076527-1.1261444,3.3733215
	c-0.5170898,1.1497688-1.1089172,2.0493336-1.7754974,2.6993504c-0.6167755,0.6330662-1.0750275,0.9497643-1.3754272,0.9497643
	c-0.6333313,0-1.2003021-0.2087097-1.7006989-0.6247635c-0.4838562-0.36656-0.7254181-0.7663078-0.7254181-1.1996384
	c0-0.2499332,0.1335754-0.3751984,0.4007416-0.3751984c0.883255,0,1.5920563-0.1827927,2.1251221-0.5492954
	c0.6672211-0.4163723,1.2756805-1.0248299,1.8259583-1.8243923c0.4832001-0.6330662,0.8839264-1.4495811,1.2002869-2.4491482
	c-0.6333923,0-1.5173187,0.1000023-2.6511078,0.2997456c-0.5336609,0-0.7995605-0.1997433-0.7995605-0.5998192
	c0-0.2160473,0.1163635-0.4499474,0.3496094-0.6994953c0.1834412-0.2003984,0.4007263-0.3004007,0.6506653-0.3004007
	l1.0002289,0.1000023c4.5678558,0,7.636261-0.0329189,9.2034454-0.1000023c0.2000122,0,0.2997437,0.1670856,0.2997437,0.5004063
	c0,0.2163668-0.0914154,0.41611-0.2748108,0.5994921c-0.2333069,0.2665653-0.4748688,0.3998146-0.7254028,0.3998146
	c-0.7171021-0.066494-1.6592102-0.1163731-2.8262482-0.1502018c0.0166168,0.0837078,0.025589,0.1668243,0.025589,0.2502041
	c0,0.2333183-0.0671539,0.8580074-0.2000732,1.8742638c-0.1335754,1.0161915-0.2006683,1.7914734-0.2006683,2.3238831
	c0,0.2671547,0.0670929,0.4250107,0.2006683,0.4751434c0.1329193,0.0837727,0.3745422,0.1498737,0.7254028,0.2000713
	c0.6327515,0.0833778,1.0916595,0.1249371,1.3747864,0.1249371c0.9669647,0,2.3347473-0.3665009,4.1019287-1.0998974
	c0.2000122,0,0.3003387,0.1335754,0.3003387,0.3997402C227.5663452,21.4166145,227.416214,21.9502659,227.1158142,22.5663834
	L227.1158142,22.5663834z M221.5637054,11.8702898c0.3163605,0,0.6084595,0.0498047,0.8756104,0.1495457
	c0.216629,0.0670824,0.3246765,0.2169561,0.3246765,0.4502735c0,0.3335819-0.1335754,0.4997511-0.3994904,0.4997511
	c-2.7680664,0-4.7359161,0.1335773-5.9023743,0.3998146c-0.4007263,0-0.6000824-0.2250061-0.6000824-0.6746254
	c0-0.1668234,0.0907135-0.3416319,0.2748108-0.5250139c0.1834564-0.1997433,0.4250183-0.2997456,0.724762-0.2997456H221.5637054
	L221.5637054,11.8702898z M225.8656616,12.470109c0,0.4662352-0.2339172,0.6994944-0.7004852,0.6994944
	c-0.4000854,0-0.6001587-0.1911039-0.6001587-0.5745564c0-0.8161869,0.0332489-1.5495825,0.1003418-2.1996002
	c-1.3012848-0.216301-2.9348297-0.3243618-4.9027557-0.3243618c-2.1340179,0-3.9344635,0.1413078-5.4019012,0.4244299
	c0,1.3833485-0.0664978,2.2081738-0.1994171,2.4743452c-0.0837097,0.2665644-0.3170319,0.3998146-0.7004852,0.3998146
	c-0.3336487,0-0.5003967-0.1000681-0.5003967-0.3000736c0-1.4495802-0.1335754-2.7150583-0.4001465-3.7986603
	c0-0.3998137,0.266571-0.5998192,0.8008728-0.5998192c0.2000122,0,0.3495483,0.0421476,0.4499512,0.1252651
	c0.182785,0.1166258,0.3329926,0.1748085,0.4499359,0.1748085c1.0168457-0.0661669,2.3513184-0.1000681,4.0015564-0.1000681
	c0.0997314,0,0.1911011,0,0.2754669,0c-0.0670929-0.5326719-0.1923523-1.0248313-0.3751526-1.474123
	c0-0.7330766,0.3662415-1.0996361,1.1005554-1.0996361c0.733078,0,1.0999603,0.3665595,1.0999603,1.0996361
	c-0.1834412,0.533318-0.3087006,1.0331421-0.3751984,1.4990578c1.8170624,0.0339012,3.4091187,0.1252575,4.776886,0.2748766
	l1.1005707-0.1997433c0.4665527,0,0.6998138,0.175128,0.6998138,0.5246859c0,0.1169538-0.0498047,0.2502689-0.1501465,0.399807
	C226.1654053,10.4456444,225.9819489,11.3036518,225.8656616,12.470109L225.8656616,12.470109z M211.6603699,9.1961355
	c-0.534317,0.466897-1.1676331,1.1245708-1.9013672,1.9742661c0,0.0498705,0.0331879,0.1086416,0.1003418,0.1748085
	c0.6665649,0.3998146,1.1919708,0.8663845,1.5760803,1.399375c0.4160461,0.5998268,0.6244202,1.2082853,0.6244202,1.8244009
	c0,1.1999664-0.416687,2.1410913-1.2501526,2.8242826c-0.8001556,0.6496964-1.7173309,0.9747047-2.7507935,0.9747047
	c-0.5170288,0-0.8922424-0.0661659-1.1254883-0.2000713c0.0498047,1.3830872,0.1252594,2.9157181,0.2249451,4.5985432
	c0,1.1993198-0.2997437,1.7991314-0.8998871,1.7991314c-0.6007538,0-0.9004974-0.4250031-0.9004974-1.274437
	c0.0664368-2.4155731,0.0996857-5.2142735,0.0996857-8.3971453c0-2.1155005-0.0664978-3.9900913-0.2000732-5.6230536
	c0-0.0831175,0-0.1578579,0-0.224679c-0.0338287,0.0166235-0.0670929,0.0246086-0.0996857,0.0246086
	c-0.4000702,0-0.6001434-0.1911049-0.6001434-0.5745573c0-0.3330002,0.1578674-0.5745568,0.474884-0.7247572
	c0.3335876-0.1332498,0.6416473-0.1997437,0.9254303-0.1997437c1.6834717,0,3.2595673,0.0335746,4.727005,0.0996757
	c0.1502075,0,0.4077301-0.0331817,0.7746277-0.0996757c0.5336609,0,0.8008118,0.2744837,0.8008118,0.824491
	C212.2605133,8.5963154,212.059845,8.8628807,211.6603699,9.1961355L211.6603699,9.1961355z M206.8586121,14.693924
	c0,0.6998873,0.0083008,1.4584732,0.0242767,2.2746677c0.1335754-0.0504665,0.2920837-0.0750675,0.4755249-0.0750675
	c1.1338043,0,1.9755096-0.2752037,2.5258636-0.8248253c0.450531-0.4662428,0.6755371-0.9660673,0.6755371-1.4997129
	c0-0.4828663-0.1924133-0.9494362-0.5752106-1.3993826c-0.5343018-0.4659147-0.975296-0.6994944-1.3255615-0.6994944
	c-0.0670776,0-0.1668243,0.0501318-0.3003998,0.1501999l-0.8001556,0.5994921
	c-0.2000732,0.1668167-0.3668976,0.2495489-0.4998169,0.2495489c-0.0837097,0-0.1501923-0.0079842-0.200058-0.0249348
	C206.8586121,13.8442287,206.8586121,14.2609282,206.8586121,14.693924L206.8586121,14.693924z M209.5589447,8.7711239h-2.0253906
	c-0.1335754,0-0.3170166,0.0169506-0.5503387,0.0501976c0.0498657,0.1498737,0.0754547,0.341567,0.0754547,0.5745573
	c-0.0837097,0.6669025-0.1425323,1.5997152-0.1757813,2.7993536l2.8761139-3.2240372
	C209.7590027,8.8382721,209.6925201,8.7711239,209.5589447,8.7711239L209.5589447,8.7711239z"/>
</svg>
