<?xml version="1.0" encoding="utf-8"?>
<!-- Generator: Adobe Illustrator 16.0.0, SVG Export Plug-In . SVG Version: 6.00 Build 0)  -->
<!DOCTYPE svg PUBLIC "-//W3C//DTD SVG 1.1//EN" "http://www.w3.org/Graphics/SVG/1.1/DTD/svg11.dtd">
<svg version="1.1" id="Layer_1" xmlns="http://www.w3.org/2000/svg" xmlns:xlink="http://www.w3.org/1999/xlink" x="0px" y="0px"
	 width="515px" height="600px" viewBox="0 0 515 600" enable-background="new 0 0 515 600" xml:space="preserve">
<path fill="#008346" d="M453.001,280.738H305.526c-39.325,0-42.052,48.094-42.052,48.094V433.65c0,0,8.669-38.425,42.556-44.998
	c1.482-0.281,151.229,0.068,152.329,0c48.634-2.729,49.248-47.276,49.248-47.276V238.639
	C500.494,281.809,453.001,280.738,453.001,280.738"/>
<path fill="#008346" d="M453.001,128.406H305.526c-39.325,0-42.052,48.027-42.052,48.027v104.911c0,0,8.669-38.438,42.556-44.993
	c1.482-0.293,151.229,0.051,152.329,0c48.634-2.781,49.248-47.354,49.248-47.354V86.334
	C500.494,129.52,453.001,128.406,453.001,128.406"/>
<path fill="#008346" d="M453.001,437.998H305.526c-39.325,0-42.052,48.104-42.052,48.104v104.798c0,0,8.669-38.408,42.556-44.951
	c1.482-0.269,151.229,0.03,152.329,0c48.634-2.691,49.248-47.323,49.248-47.323V395.998
	C500.494,439.11,453.001,437.998,453.001,437.998"/>
<path fill="#008346" d="M201.158,199.527c-1.048-0.055-150.835,0.305-152.35,0c-33.867-6.528-42.543-44.915-42.543-44.915v104.834
	c0,0,2.717,48.026,42.047,48.026h147.479c0,0,47.483-1.101,54.596,42.038V246.85C250.387,246.85,249.78,202.283,201.158,199.527"/>
<path fill="#008346" d="M201.158,357.957c-1.048-0.08-150.835,0.312-152.35,0C14.941,351.388,6.265,312.93,6.265,312.93v104.869
	c0,0,2.717,48.065,42.047,48.065h147.479c0,0,47.483-1.125,54.596,42.029V405.255C250.387,405.255,249.78,360.699,201.158,357.957"
	/>
<path fill="#F6921E" d="M200.04,5.799c-40.875,0-74.02,33.119-74.02,73.981c0,40.888,33.144,74.037,74.02,74.037
	c40.835,0,73.939-33.148,73.939-74.037C273.979,38.917,240.875,5.799,200.04,5.799"/>
</svg>
